<?xml version="1.0" encoding="utf-8"?>
<!-- Generator: Adobe Illustrator 22.0.0, SVG Export Plug-In . SVG Version: 6.00 Build 0)  -->
<svg version="1.1" id="Calque_1" xmlns="http://www.w3.org/2000/svg" xmlns:xlink="http://www.w3.org/1999/xlink" x="0px" y="0px"
	 viewBox="0 100 432 232" style="enable-background:new 0 0 432 432;" xml:space="preserve">
<style type="text/css">
	.st0{fill:#C51618;}
	.st1{fill:#BE1622;}
	.st2{fill:#97191D;}
	.st3{fill:#BA1818;}
	.st4{fill:#DADADA;}
	.st5{fill:#F39200;}
	.st6{fill:#EDEDED;}
	.st7{fill:#C6C6C6;}
	.st8{fill:#B51922;}
	.st9{fill:#FFFFFF;}
	.st10{fill:#95C11F;}
	.st11{fill:#FBF18E;}
	.st12{fill:#A3195B;}
	.st13{fill:#CE9445;}
	.st14{fill:#C07912;}
	.st15{fill:#006633;}
	.st16{fill:#A91917;}
	.st17{fill:#A31A17;}
	.st18{fill:#CCCCCC;}
	.st19{fill:#AB1918;}
	.st20{fill:#BA7321;}
	.st21{fill:#4D3134;}
	.st22{fill:#BD1824;}
	.st23{fill:#71484C;}
	.st24{fill:#020203;}
	.st25{fill:#008D36;}
	.st26{fill:#027835;}
	.st27{fill:#005229;}
	.st28{fill:#A91921;}
	.st29{fill:#9E1920;}
	.st30{fill:#DB9646;}
	.st31{fill:#F8EAD9;}
	.st32{fill:#FFF1E0;}
	.st33{fill:#DED2C2;}
	.st34{fill:#3C3C3B;}
	.st35{fill:#A61E19;}
	.st36{fill:#3AAA35;}
	.st37{fill:#1A1A1A;}
	.st38{fill:#B01E19;}
	.st39{fill:#F9C733;}
	.st40{fill:#E0BC97;}
	.st41{fill:#CC9F71;}
	.st42{fill:#1D71B8;}
	.st43{fill:#DA907B;}
	.st44{fill:#BA874D;}
	.st45{fill:#A01E2A;}
	.st46{fill:#F2F2F2;}
	.st47{fill:#F4D5AB;}
	.st48{fill:#87181A;}
	.st49{fill:#FAB62E;}
	.st50{fill:#F7A509;}
	.st51{fill:#E94E1B;}
	.st52{fill:#634E42;}
	.st53{fill:#1C1D3B;}
	.st54{fill:#936037;}
	.st55{fill:#7D4E24;}
	.st56{fill:#EDF6F7;}
	.st57{fill:#432918;}
	.st58{fill:#683C11;}
	.st59{fill:#FDD110;}
	.st60{fill:#E30613;}
	.st61{fill:#2D2E83;}
	.st62{fill:#F8AC14;}
	.st63{fill:#C5E5EE;}
	.st64{fill:#EE7476;}
	.st65{fill:#706F6F;}
</style>
<g>
	<g>
		<g>
			<polygon class="st53" points="351.7,230 378,171.9 323,157 316.3,220.4 			"/>
			<path class="st1" d="M353.6,166.6c1.2,0.6,2.6,1.2,4.3,1.9c2.3,0.8,5.1,1.6,7.9,2c2.8,0.4,5.8,0.5,8.5,0.3l-1.2-9.5
				c-2.1,0.3-4.5,0.7-6.9,0.9c-2.4,0.2-4.8,0.2-7,0.2c-1.8-0.1-3.4-0.3-4.7-0.4c0.4-0.4,0.8-0.8,1.1-1.2c1.8-1.8,9.6-11.7,11.2-14
				l-6.3-3.9c-0.7,1.3-7,10.4-7.7,11.9c0.2-2.6-1.2-14.5-1.4-17l-7.3,0.9c0.5,3.1,2.9,15.8,3.6,18.7c0.2,0.8,0.3,1.8,0.6,2.8
				c-1.1-0.5-2.5-1.1-4-1.9c-1.9-1-4-2.3-5.9-3.7c-2-1.4-3.9-2.9-5.5-4.3l-5.8,7.6c2.2,1.6,4.8,3,7.4,4.1c2.7,1.1,5.4,1.8,7.8,2.3
				c1.7,0.3,3.3,0.5,4.6,0.6l-7,25.8l-19.7-5.4l-0.8,7.1l18.6,5.1l-7.3,27l6.8,1.8l7.3-27l18.6,5.1l2.9-6.5l-19.7-5.4L353.6,166.6z"
				/>
		</g>
		<g>
			<polygon class="st53" points="80.3,230 54,171.9 109,157 115.7,220.4 			"/>
			<path class="st1" d="M78.4,166.6c-1.2,0.6-2.6,1.2-4.3,1.9c-2.3,0.8-5.1,1.6-7.9,2c-2.8,0.4-5.8,0.5-8.5,0.3l1.2-9.5
				c2.1,0.3,4.5,0.7,6.9,0.9c2.4,0.2,4.8,0.2,7,0.2c1.8-0.1,3.4-0.3,4.7-0.4c-0.4-0.4-0.8-0.8-1.1-1.2c-1.8-1.8-9.6-11.7-11.2-14
				l6.3-3.9c0.7,1.3,7,10.4,7.7,11.9c-0.2-2.6,1.2-14.5,1.4-17l7.3,0.9c-0.5,3.1-2.9,15.8-3.6,18.7c-0.2,0.8-0.3,1.8-0.6,2.8
				c1.1-0.5,2.5-1.1,4-1.9c1.9-1,4-2.3,5.9-3.7c2-1.4,3.9-2.9,5.5-4.3l5.8,7.6c-2.2,1.6-4.8,3-7.4,4.1c-2.7,1.1-5.4,1.8-7.8,2.3
				c-1.7,0.3-3.3,0.5-4.6,0.6l7,25.8l19.7-5.4l0.8,7.1l-18.6,5.1l7.3,27l-6.8,1.8l-7.3-27l-18.6,5.1l-2.9-6.5l19.7-5.4L78.4,166.6z"
				/>
		</g>
	</g>
	<g>
		<path class="st10" d="M107.8,125.8l22.5-0.1v5.6h-8.9l0.7,40.3h-5.1l-0.8-40.3h-8.5V125.8z"/>
		<path class="st10" d="M162.7,147.7c0.2,7.5,0.4,15.2,0.4,22.5v1.3H158v-1.3c0-2,0-6.4,0-9l-19.4,0v9.8h-5.2v-1.3
			c0-5.7-0.2-13.8-0.4-21.7c-0.2-7.8-0.4-15.8-0.4-21.5v-1.3h5.2v1.3c0,6.2,0.2,13.8,0.4,20.5c0.1,3.3,0.2,6.5,0.2,9.1l19.4,0
			l-0.7-30.3h5.2v1.3C162.4,133.5,162.5,140.4,162.7,147.7z"/>
		<path class="st10" d="M170.7,125.7l0.8,45.8h-5.2l-0.8-45.8H170.7z"/>
		<path class="st10" d="M196.3,162.8c-0.1,2.4-1.4,4.6-3.9,6.6c-1.9,1.5-4.3,2.3-6.7,2.3c-1.8,0-3.7-0.4-5.5-1.3
			c-4.4-2.2-6.7-6.5-6.1-11.4l5.3,0.6c-0.3,2.7,0.9,5.1,3.3,6.3c2.1,1.1,4.6,0.9,6.2-0.3c1.9-1.6,2-2.7,2-3c0.1-2.4-3.3-5.7-6.5-9
			c-5.8-5.7-13-12.8-8.7-21.7c2.2-4.5,6.1-6.8,10.5-6.1c4.8,0.8,8.6,5,9,10.1l-5.4,0.4c-0.3-3.2-2.6-5.2-4.6-5.5
			c-2.5-0.4-4,1.8-4.6,3.2c-2.6,5.4,1.3,9.9,7.6,16.1C192.5,154.3,196.5,158.2,196.3,162.8z"/>
		<path class="st10" d="M247.1,149.2c-2.5,3-7,6.6-15,8.2c4.2,2.4,5.9,4.8,5.5,7.2c-1,5.6-14.2,6.9-14.5,6.9c0,0,0,0,0,0l-1.3,0.1
			l-4.2-45.3l1.4-0.1c9.1-0.7,30.3-2.4,31.9,11.9C251.2,141.7,249.9,145.8,247.1,149.2z M245.7,138.7c-0.9-8-11-8.6-22.2-7.8
			l1.8,22.1c8.5-0.9,15.4-3.6,18.5-7.4C245.3,143.6,246,141.3,245.7,138.7z M225.8,159.8l0.5,6.6c2.7-0.5,6-1.8,6.1-2.7
			C232.4,163.6,232.4,162.2,225.8,159.8z"/>
		<path class="st10" d="M287.7,132.8c3,4,4.6,9.5,4.6,15.3c0,6-1.8,11.7-4.9,15.9c-3.7,4.9-8.9,7.5-15.1,7.5
			c-6.1,0-11.1-2.3-14.5-6.5c-2.9-3.7-4.5-8.8-4.5-14.4c0-6.1,1.9-12.2,5.2-16.8c3.7-5.2,9-8,14.9-8
			C279.3,125.7,284.2,128.2,287.7,132.8z M262.4,136.8c-2.5,3.7-4,8.6-4,13.4c0,12,7.3,16.2,14.2,16.2c9.5,0,14.5-9.2,14.5-18.3
			c0-4.7-1.3-9-3.6-12.1c-2.5-3.4-6.2-5.3-10.6-5.3C267.7,130.8,264.3,134.1,262.4,136.8z"/>
		<path class="st10" d="M323.5,127.8c-10.2,17.6-13.2,22.7-14.1,24.3l0.2,19.8h-5.3l-0.2-19.6l-16.3-25.2l4.4-2.7l0.7,1.1
			c0.1,0.2,9.3,15,13.6,20.7c10-16.2,12.2-20.7,12.2-20.7l0.6-1.1l4.9,2L323.5,127.8z"/>
	</g>
	<g>
		<path class="st53" d="M131.8,181.8c3.7-0.2,7.7-0.3,11.6-0.5c1.2,0,2.3,0,3.4,0.4c0.6,0.2,1,0.6,1,1.2c0,0.6-0.6,0.8-1.1,1.1
			c-0.8,0.4-2.1-0.4-2.4,0.9c-0.2,0.9,0,1.8,0,2.8c0.2,8.7,0.3,17.5,0.5,26.2c0.1,2.6,0.3,5.2,0.4,7.9c0,1.1,0.4,1.5,1.5,1.5
			c1.8,0.1,3.5,0.2,5.3,0.4c1,0.1,1.4-0.3,1.5-1.2c0.1-0.8,0.1-1.5,0.5-2.2c0.2-0.3,0.5-0.4,0.8-0.4c0.3,0,0.6,0.3,0.6,0.6
			c0.2,1.5,0.3,3.1-0.1,4.6c-0.3,0.9-1.1,1.2-2,1.3c-1.2,0.1-2.5-0.2-3.7-0.3c-6.6-0.1-13.1-0.3-19.7,0.1c-1.3,0.1-2.5-0.2-3.7-0.4
			c-0.5-0.1-0.9-0.5-0.8-1c0-0.4,0.4-0.7,0.8-0.8c2.2-0.2,2-1.6,1.9-3.2c-0.4-6.9-0.7-13.7-0.9-20.6c-0.2-4.9,0.1-9.7,0.5-14.6
			c0.1-0.9,0.1-1.5-1-1.5c-0.2,0-0.3,0-0.4-0.1c-0.5-0.2-1-0.5-0.9-1.2c0.1-0.6,0.6-0.9,1.1-1C128.2,181.8,129.9,181.8,131.8,181.8z
			"/>
		<path class="st53" d="M194,201c0.1,2.8-0.2,5.8-1.1,8.7c-2.3,7.6-7.3,12.9-15.4,15.6c-3.1,1-6.3,1.3-9.6,0.6
			c-3.3-0.6-6.2-2-8.3-4.5c-6.7-8.1-9.5-17.2-6-27.3c1.6-4.7,4.6-8.8,9-11.9c3.1-2.2,6.6-3.4,10.6-3.3c3.1,0.1,6.2,0,9.1,1.2
			c6.4,2.6,9.7,7.3,11.1,13.5C193.9,196,194,198.4,194,201z M191.1,201.3c0-2.3-0.1-4.5-0.5-6.7c-0.7-3.2-1.9-6.3-4.2-8.8
			c-1.9-2.1-4.2-2.2-6.5-1.2c-1.5,0.6-2.7,1.5-3.7,2.6c-1.4,1.5-2.4,3.2-3.2,5c-3,7.5-3.3,15.1-0.7,22.8c0.5,1.6,1.3,3.1,2.3,4.5
			c1.8,2.4,3.8,2.9,6.6,1.7c3.9-1.6,6.5-4.3,8-8.1C190.7,209.2,191.2,205.3,191.1,201.3z"/>
		<path class="st53" d="M215.2,183.4c3.6,12,5.3,24.2,9.9,36.3c0.6-2.2,1-3.8,1.4-5.4c2.2-9.6,4.9-19,7.3-28.5
			c0.1-0.4,0.2-0.7,0.3-1.1c0.2-0.8,0-1.4-0.9-1.4c-0.2,0-0.5-0.1-0.7-0.1c-0.3-0.1-0.5-0.4-0.6-0.7c-0.1-0.4,0.3-0.8,0.6-0.9
			c1.8-0.3,3.6-0.7,5.5-0.6c0.5,0,0.9,0.3,1,0.8c0.1,0.5-0.3,1-0.7,1.1c-1.6,0.2-1.7,1.5-2,2.7c-2.3,9.1-4.6,18.3-6.9,27.4
			c-0.9,3.5-1.9,7-2.8,10.5c1,0.5,1.9,0.2,2.9,0.2c0.9,0.1,1.6,0.4,1.6,1.3c0,0.9-0.8,1.4-1.6,1.4c-2,0.1-4,0.1-6,0.1
			c-4.6-0.1-9.1,0.3-13.7-0.4c-0.3,0-0.6,0-0.9-0.1c-0.6-0.1-1.3-0.3-1.3-1.1c-0.1-0.8,0.6-1,1.2-1.1c0.3-0.1,0.6-0.1,0.9-0.2
			c0-0.9-0.5-1.6-0.8-2.4c-4.9-11.7-8.5-23.7-10.9-36.1c-0.2-0.9-0.3-1.4-1.3-1.6c-0.6-0.1-1.3-0.4-1.2-1.2c0.1-0.8,0.8-0.9,1.4-1
			c0.8-0.1,1.7-0.3,2.5-0.3c5.6,0,11.3,0.2,16.9-0.1c0.9,0,2.2-0.1,2.2,1.1c0.1,1.2-1.2,1.2-2.1,1.3
			C216.2,183.2,215.9,183.3,215.2,183.4z"/>
		<path class="st53" d="M261.9,195.3c-0.5,5.3-0.5,9.2-0.6,13.2c-0.1,2.3,0.2,2,1.8,2c1.2,0,2.5,0.4,3.3-1.3
			c0.3-0.6,1.2-0.3,1.4,0.4c0.4,1.3,0.4,2.7,0.3,4.1c0,0.5-0.3,0.9-0.9,0.9c-0.5,0-0.9-0.2-1.1-0.7c-0.2-0.5-0.1-1.4-0.9-1.5
			c-1.1-0.1-2.3-0.1-3.5,0c-0.5,0-0.6,0.5-0.6,0.9c-0.2,3.2,0,6.3,0.2,9.5c0.1,0.7,0.6,0.8,1.1,0.8c1.9,0,3.9,0,5.8,0
			c0.9,0,1.4-0.4,1.5-1.4c0.1-1.1,0.3-2.1,0.4-3.2c0.1-0.6,0.2-1.1,0.9-1.2c0.9,0,0.9,0.7,0.9,1.3c0.1,1.5-0.1,2.9-0.4,4.4
			c-0.4,1.6-1.4,2.3-2.9,2.6c-0.2,0-0.3,0-0.5,0c-8.2,0.2-16.4,0.1-24.5-0.9c-0.8-0.1-1.5-0.3-2.3-0.5c-0.4-0.1-0.7-0.4-0.7-0.8
			c-0.1-0.6,0.3-0.8,0.8-1c0.4-0.1,0.9-0.2,1.4-0.2c1.1,0,1.2-0.5,1.1-1.5c-0.5-8.7-0.5-17.3,0-26c0.2-3.7,0.4-7.4,0.9-11.1
			c0.1-0.7,0-1.2-0.9-1.2c-0.4,0-0.8-0.1-1.1-0.2c-0.6-0.1-1.4-0.1-1.3-1c0.1-0.7,0.9-0.9,1.5-0.9c3.2-0.2,6.3-0.3,9.5-0.4
			c6-0.2,12.1,0.1,18.1,0.8c1.6,0.2,2.1,0.6,2.6,2.2c0.5,1.7,0.2,3.4-0.3,5c-0.2,0.7-0.6,1.3-1.5,1.2c-0.9-0.1-0.9-1-1-1.6
			c-0.3-1.1,0.1-2.2,0.1-3.2c0-1-0.4-1.3-1.4-1.4c-2-0.2-4-0.4-6-0.4c-1,0-1.3,0.3-1.3,1.3C262,188.5,261.9,192.6,261.9,195.3z"/>
		<path class="st53" d="M289,226.3c-1.3,0-3.8-0.4-6.2-1.2c-5.5-2-8.3-6.6-6.9-12.3c0.2-0.9,0.5-1.7-0.5-2.4
			c-0.3-0.2-0.4-0.5-0.2-0.9c0.3-0.4,0.7-0.6,1.1-0.5c1.3,0.3,2.4,0.9,3.5,1.7c0.4,0.3,0.5,0.7,0.4,1.1c-0.1,0.5-0.6,0.6-1,0.5
			c-1.5-0.4-1.7,0.6-1.9,1.6c-0.4,2.1,0,4,1.2,5.8c2,3.1,9.1,3.7,12.1-0.3c0.8-1,0.6-2.1,0.2-3.2c-0.6-1.7-1.8-3.2-3.1-4.5
			c-1.9-2.1-4.2-3.9-6-6.1c-5.3-6.2-5.7-14.2-1-20.4c2.3-3,5.2-5.1,9.1-5.6c3.7-0.5,7,0.5,9.8,2.9c2.3,2,2.1,4.6,1.7,7.2
			c-0.2,1.2-0.9,2.3,0.8,2.9c0.2,0.1,0.3,0.5,0.2,0.8c-0.1,0.4-0.4,0.6-0.8,0.6c-1.6-0.2-3-0.8-4.4-1.6c-0.1-0.1-0.3-0.4-0.2-0.5
			c0.1-0.4,0.4-0.6,0.7-0.7c2.2-0.5,2.3-0.7,2.2-2.7c-0.1-2-1.3-3.3-3.5-3.7c-3.7-0.6-6.6,2.2-6.3,6.1c0.2,2.4,1.3,4.3,3,5.9
			c2.4,2.3,5,4.5,7.5,6.7c1.5,1.4,3.1,2.7,4.2,4.5c1.8,2.9,2.6,6,1.6,9.5c-0.7,2.4-2.2,4.2-4.3,5.6
			C298.3,225.5,294.4,226.3,289,226.3z"/>
	</g>
	<g>
		<path class="st1" d="M121.1,245.4l0.5,1.1l-1.1,0.6c-0.7,0.4-1.4,0.8-2.3,1.2l-1.3,0.6l-0.6-1.3c-0.8-1.8-1.8-3.3-3-4.5
			c-1.7-1.7-3.7-2.7-6-2.9c-5.4-0.5-9.3,1.5-12,6.1c-1.2,2-2,4.4-2.5,7.2c-0.5,2.8-0.6,5.7-0.3,8.6c0.3,2.8,0.9,5.3,1.9,7.6
			c0.9,2.2,2.1,3.8,3.3,4.9c1.2,1,2.5,1.4,4,1.3c1.8-0.2,3.8-1.3,5.9-3.3c1.4-1.3,2.8-2.9,4.2-4.8c0.6-0.9,1.4-2,2.1-3.2l0.7-1.1
			l1.1,0.6c0.7,0.4,1.4,0.8,2.2,1.1l1.3,0.7l-0.8,1.2c-0.9,1.4-1.7,2.6-2.4,3.7c-1.6,2.2-3.3,4.1-5,5.6c-3,2.7-6,4.2-8.9,4.5
			c-0.4,0-0.8,0.1-1.2,0.1c-2.4,0-4.6-0.8-6.6-2.4c-1.9-1.6-3.5-3.8-4.7-6.7c-1.2-2.8-2-5.9-2.4-9.2c-0.4-3.4-0.3-6.8,0.3-10.1
			c0.6-3.3,1.6-6.2,3.1-8.8c1.8-3.1,4.2-5.4,7-6.9c2.9-1.5,6.2-2.1,9.9-1.7c3.5,0.4,6.6,1.8,9.2,4.3
			C118.7,241.1,120,243.1,121.1,245.4z"/>
		<path class="st1" d="M154.1,257.1c0.2,7.5,0.4,15.2,0.4,22.5v1.3h-5.2v-1.3c0-2,0-6.4,0-9l-19.4,0v9.8h-5.2V279
			c0-5.7-0.2-13.8-0.4-21.7c-0.2-7.8-0.4-15.8-0.4-21.5v-1.3h5.2v1.3c0,6.2,0.2,13.8,0.4,20.5c0.1,3.3,0.2,6.5,0.2,9.1l19.4,0
			l-0.7-30.3h5.2v1.3C153.7,242.8,153.9,249.7,154.1,257.1z"/>
		<path class="st1" d="M184,242.4c2.4,3.5,2.5,8.1,0.3,12.4c-3.1,6.1-9.8,10.4-17.5,11.5c1.2,1.1,2.5,2.3,3.8,3.5
			c2.7,2.5,5.4,5,7.4,7l0.9,0.9l-3.6,3.7l-1-1c-1.9-1.9-4.5-4.4-7.1-6.7c-1.6-1.4-3.1-2.9-4.6-4.2l0,0.3c0.1,3.7,0.2,7.1,0.2,9.8
			v1.3h-5.2v-1.3c0-5.6-0.2-12.3-0.4-19.4c-0.2-7.9-0.4-16-0.4-23.4v-1.2l1.2-0.1C170.9,234.2,180.1,236.7,184,242.4z M179.9,245.6
			c-1.3-2.1-5.3-5.5-17.8-4.9c0,6,0.3,16,0.4,20.6c0.1,0,0.1,0,0.2,0c7.9,0,14.1-4.3,16.6-8.6C180.2,251.3,181.5,248.3,179.9,245.6z
			"/>
		<path class="st1" d="M193.5,235.1l0.8,45.8h-5.2l-0.8-45.8H193.5z"/>
		<path class="st1" d="M219,272.2c-0.1,2.4-1.4,4.6-3.9,6.6c-1.9,1.5-4.3,2.3-6.7,2.3c-1.8,0-3.7-0.4-5.5-1.3
			c-4.4-2.2-6.7-6.5-6.1-11.4l5.3,0.6c-0.3,2.7,0.9,5.1,3.3,6.3c2.1,1.1,4.6,0.9,6.2-0.3c1.9-1.6,2-2.7,2-3c0.1-2.4-3.3-5.7-6.5-9
			c-5.8-5.7-13-12.8-8.7-21.7c2.2-4.5,6.1-6.8,10.5-6.1c4.8,0.8,8.6,5,9,10.1l-5.4,0.4c-0.3-3.2-2.6-5.2-4.6-5.5
			c-2.5-0.4-4,1.8-4.6,3.2c-2.6,5.4,1.3,9.9,7.6,16.1C215.2,263.7,219.2,267.6,219,272.2z"/>
		<path class="st1" d="M221.4,235.1l22.5-0.1v5.6h-8.9l0.7,40.3h-5.1l-0.8-40.3h-8.5V235.1z"/>
		<path class="st1" d="M286.7,280v1.3h-5.2V280c0-4.4-0.1-11.1-0.4-20c0-1.3-0.1-2.2-0.1-2.9c-0.1-3.6-0.2-6.9-0.2-9.6
			c-4.7,8.6-12.5,21.9-12.6,22l-0.4,0.7h-4l-1-1.9c-1.3-2.4-3.4-6.1-5.7-9.9l-0.1-0.2c-2.3-3.8-4-6.8-5.1-8.7
			c-0.1-0.2-0.3-0.5-0.4-0.7c0.1,2.3,0.1,4.9,0.2,7.8c0,0.7,0,1.6,0.1,2.8c0.2,8.9,0.4,15.7,0.4,20.2v1.3H247v-1.3
			c0-4.4-0.1-11.1-0.4-20c0-1.2-0.1-2.2-0.1-2.9c-0.2-6.9-0.3-15.5-0.3-20.1v-1.3h3.8l0.4,0.8c1.3,2.6,4,7.6,5.9,10.9l9.7,16.3
			l15-27.9h4.9v1.3c0,4,0.1,13.1,0.3,20.5c0,0.6,0,1.6,0.1,2.8v0C286.6,268.8,286.7,275.6,286.7,280z"/>
		<path class="st1" d="M320,280.9h-4.8l-0.3-1c-0.6-2.1-1.3-4.5-1.7-5.9l-16.9-0.3l-0.3,0.8c-0.5,1.6-1.2,3.8-1.7,5.4l-0.3,0.9h-4.9
			l0.6-1.8c3.2-9.6,11.8-42.7,11.9-43l0.3-1h4.6l0.3,1c0.1,0.4,10.9,36.2,12.8,43.2L320,280.9z M312,269l-7.8-25.3
			c-0.3,1.3-0.8,2.9-1.3,5c-1.9,7.2-4.4,16.5-5.4,20.2L312,269z"/>
		<path class="st1" d="M344.8,272.2c-0.1,2.4-1.4,4.6-3.9,6.6c-1.9,1.5-4.3,2.3-6.7,2.3c-1.8,0-3.7-0.4-5.5-1.3
			c-4.4-2.2-6.7-6.5-6.1-11.4l5.3,0.6c-0.3,2.7,0.9,5.1,3.3,6.3c2.1,1.1,4.6,0.9,6.2-0.3c1.9-1.6,2-2.7,2-3c0.1-2.4-3.3-5.7-6.5-9
			c-5.8-5.7-13-12.8-8.7-21.7c2.2-4.5,6.1-6.8,10.5-6.1c4.8,0.8,8.6,5,9,10.1l-5.4,0.4c-0.3-3.2-2.6-5.2-4.6-5.5
			c-2.5-0.4-4,1.8-4.6,3.2c-2.6,5.4,1.3,9.9,7.6,16.1C341,263.7,345,267.6,344.8,272.2z"/>
	</g>
	<g>
		<path class="st10" d="M103.8,295.2c-2-4.3-7.1-6.3-11.5-4.3c-4.3,2-6.3,7.1-4.3,11.5c2.4,5.2,7.1,6.3,11.5,4.3
			C103.9,304.6,105.8,299.5,103.8,295.2z"/>
		<path class="st53" d="M127.8,295.2c-2-4.3-7.1-6.3-11.5-4.3c-4.3,2-6.3,7.1-4.3,11.5c2.4,5.2,7.1,6.3,11.5,4.3
			C127.9,304.6,129.8,299.5,127.8,295.2z"/>
		<path class="st10" d="M151.8,295.2c-2-4.3-7.1-6.3-11.5-4.3c-4.3,2-6.3,7.1-4.3,11.5c2.4,5.2,7.1,6.3,11.5,4.3
			C151.9,304.6,153.8,299.5,151.8,295.2z"/>
		<path class="st1" d="M175.8,295.2c-2-4.3-7.1-6.3-11.5-4.3c-4.3,2-6.3,7.1-4.3,11.5c2.4,5.2,7.1,6.3,11.5,4.3
			C175.9,304.6,177.8,299.5,175.8,295.2z"/>
		<path class="st53" d="M199.8,295.2c-2-4.3-7.1-6.3-11.5-4.3c-4.3,2-6.3,7.1-4.3,11.5c2.4,5.2,7.1,6.3,11.5,4.3
			C199.9,304.6,201.8,299.5,199.8,295.2z"/>
		<path class="st10" d="M223.9,295.2c-2-4.3-7.1-6.3-11.5-4.3c-4.3,2-6.3,7.1-4.3,11.5c2.4,5.2,7.1,6.3,11.5,4.3
			C224,304.6,225.9,299.5,223.9,295.2z"/>
		<path class="st53" d="M247.9,295.2c-2-4.3-7.1-6.3-11.5-4.3c-4.3,2-6.3,7.1-4.3,11.5c2.4,5.2,7.1,6.3,11.5,4.3
			C248,304.6,249.9,299.5,247.9,295.2z"/>
		<path class="st1" d="M271.9,295.2c-2-4.3-7.1-6.3-11.5-4.3c-4.3,2-6.3,7.1-4.3,11.5c2.4,5.2,7.1,6.3,11.5,4.3
			C272,304.6,273.9,299.5,271.9,295.2z"/>
		<path class="st10" d="M295.9,295.2c-2-4.3-7.1-6.3-11.5-4.3c-4.3,2-6.3,7.1-4.3,11.5c2.4,5.2,7.1,6.3,11.5,4.3
			C296,304.6,297.9,299.5,295.9,295.2z"/>
		<path class="st1" d="M320,295.2c-2-4.3-7.1-6.3-11.5-4.3c-4.3,2-6.3,7.1-4.3,11.5c2.4,5.2,7.1,6.3,11.5,4.3
			C320,304.6,321.9,299.5,320,295.2z"/>
		<path class="st10" d="M344,295.2c-2-4.3-7.1-6.3-11.5-4.3c-4.3,2-6.3,7.1-4.3,11.5c2.4,5.2,7.1,6.3,11.5,4.3
			C344.1,304.6,346,299.5,344,295.2z"/>
	</g>
</g>
</svg>
