<?xml version="1.0" encoding="utf-8"?>
<!-- Generator: Adobe Illustrator 22.0.0, SVG Export Plug-In . SVG Version: 6.00 Build 0)  -->
<svg version="1.1" id="Calque_1" xmlns="http://www.w3.org/2000/svg" xmlns:xlink="http://www.w3.org/1999/xlink" x="0px" y="0px"
	 viewBox="0 70 432 300" style="enable-background:new 0 0 432 432;" xml:space="preserve">
<style type="text/css">
	.st0{fill:#C51618;}
	.st1{fill:#BE1622;}
	.st2{fill:#97191D;}
	.st3{fill:#BA1818;}
	.st4{fill:#DADADA;}
	.st5{fill:#F39200;}
	.st6{fill:#EDEDED;}
	.st7{fill:#C6C6C6;}
	.st8{fill:#B51922;}
	.st9{fill:#FFFFFF;}
	.st10{fill:#95C11F;}
	.st11{fill:#FBF18E;}
	.st12{fill:#A3195B;}
	.st13{fill:#CE9445;}
	.st14{fill:#C07912;}
	.st15{fill:#006633;}
	.st16{fill:#A91917;}
	.st17{fill:#A31A17;}
	.st18{fill:#CCCCCC;}
	.st19{fill:#AB1918;}
	.st20{fill:#BA7321;}
	.st21{fill:#4D3134;}
	.st22{fill:#BD1824;}
	.st23{fill:#71484C;}
	.st24{fill:#020203;}
	.st25{fill:#008D36;}
	.st26{fill:#027835;}
	.st27{fill:#005229;}
	.st28{fill:#A91921;}
	.st29{fill:#9E1920;}
	.st30{fill:#DB9646;}
	.st31{fill:#F8EAD9;}
	.st32{fill:#FFF1E0;}
	.st33{fill:#DED2C2;}
	.st34{fill:#3C3C3B;}
	.st35{fill:#A61E19;}
	.st36{fill:#3AAA35;}
	.st37{fill:#1A1A1A;}
	.st38{fill:#B01E19;}
	.st39{fill:#F9C733;}
	.st40{fill:#E0BC97;}
	.st41{fill:#CC9F71;}
	.st42{fill:#1D71B8;}
	.st43{fill:#DA907B;}
	.st44{fill:#BA874D;}
	.st45{fill:#A01E2A;}
	.st46{fill:#F2F2F2;}
	.st47{fill:#F4D5AB;}
	.st48{fill:#87181A;}
	.st49{fill:#FAB62E;}
	.st50{fill:#F7A509;}
	.st51{fill:#E94E1B;}
	.st52{fill:#634E42;}
	.st53{fill:#1C1D3B;}
	.st54{fill:#936037;}
	.st55{fill:#7D4E24;}
	.st56{fill:#EDF6F7;}
	.st57{fill:#432918;}
	.st58{fill:#683C11;}
	.st59{fill:#FDD110;}
	.st60{fill:#E30613;}
	.st61{fill:#2D2E83;}
	.st62{fill:#F8AC14;}
	.st63{fill:#C5E5EE;}
	.st64{fill:#EE7476;}
	.st65{fill:#706F6F;}
</style>
<g>
	<path d="M300.5,110.7c1.9-1.6,3.9-2.8,6.2-3.8c0.4-0.2,0.7-0.5,0.9-0.9c0.8-1.2,1.8-2.4,2.7-3.5c3.5-3.9,7.6-7.1,12.7-8.8
		c4.1-1.4,8.2-1.7,12.3-0.6c5.1,1.5,8.9,4.7,11.1,9.5c2.8,6,2.9,12.1,0.7,18.2c-0.2,0.6-0.3,1.3-0.3,1.9c0.2,2.5-0.1,5-0.9,7.4
		c-2,6.2-6,10.5-12.2,12.6c-0.3,0.1-0.6,0.1-0.8,0.5c0.2,0,0.3,0.1,0.5,0.1c4.1,0.5,8.2,0.5,12.3,0.1c4.1-0.4,8.2-1.3,11.9-3.3
		c4.3-2.2,7.6-5.4,9.3-9.9c0.9-2.4,1.2-4.8,0.4-7.3c-0.6-1.7-1.7-3-3.4-3.6c-2.8-1-5.1-0.1-6.3,2.2c-0.7,1.3-0.5,2.7,0.6,3.6
		c0.1-0.3,0.1-0.6,0.1-0.8c0.2-0.9,0.8-1.3,1.5-1.4c0.8,0,1.4,0.5,1.7,1.3c0.3,0.9,0.2,1.9-0.3,2.7c-1.2,2-3.7,2.3-5.6,0.8
		c-2-1.7-2.7-4.9-1.4-7.3c1.9-3.4,5.3-5.1,9.5-3.7c3.4,1.1,5.2,3.6,5.8,7c0.7,3.6-0.1,7-1.8,10.2c-2.7,5.2-7,8.7-12.4,11
		c-5.5,2.3-11.3,2.9-17.2,2.8c-2.6,0-5.2-0.3-7.8-0.7c-0.6-0.1-0.9,0.1-1.1,0.7c-0.8,2.7-1.6,5.4-2.5,8.1
		c-2.2,6.7-4.1,13.4-5.9,20.2c-1.4,5.2-2.6,10.5-4,15.7c-1.8,7-3.5,14.1-5.6,21c-0.7,2.3-1.2,4.7-2.1,7c-0.8,2.2-2,2.9-4.3,2.6
		c-0.2,0-0.5-0.1-0.7-0.1c-2.3-0.6-4.6-1-6.9-1.3c-1-0.1-26.1-3.8-34.6-3.7c-2.2,0-3.4-1.1-3.8-3.2c-0.1-0.9-0.2-1.8-0.2-2.7
		c-0.3-6.2-0.7-12.3-0.8-18.5c-0.1-6.7-0.3-13.4-0.5-20c-0.1-5.3-0.3-10.7-0.7-16c-0.4-5.8-0.9-11.5-1.3-17.3
		c-0.1-1.1-0.1-2.2,0.8-3.2c-0.7-0.2-1.2-0.4-1.7-0.6c-5.8-1.9-10.9-4.9-14.9-9.5c-0.5-0.5-0.9-0.6-1.5-0.5
		c-2.1,0.5-4.1,1.3-5.8,2.6c-4.5,3.4-6.8,7.9-6.7,13.5c0.1,4.4,2.3,7.5,6.3,9.4c2.1,1,4.2,0.8,6.1-0.6c2.1-1.4,3.3-3.5,3.6-5.9
		c0.4-2.7-1.6-4.7-4.1-4.3c-1.2,0.2-2,0.9-2.4,2c0.3,0.2,0.4,0.2,0.6,0.4c1.6,1.1,1.6,3.4,0,4.6c-0.6,0.5-1.3,0.6-2.1,0.2
		c-1.1-0.5-1.8-1.3-2-2.4c-0.4-1.6-0.1-3.2,0.9-4.5c1.5-2,3.5-2.7,6-2.2c2.9,0.6,5,2.7,5.1,5.6c0.1,4.1-1.7,7.4-5.1,9.8
		c-2.8,1.9-5.9,2.2-9,0.7c-3.8-1.9-6.4-4.9-7.4-9c-1-4.3-0.5-8.5,1.4-12.4c2.6-5.4,6.7-9.2,12.7-10.5c0.2,0,0.4,0,0.6-0.3
		c-0.1-0.1-0.1-0.3-0.2-0.5c-1-2-1.8-4.1-2.2-6.3c-0.8-3.9-1.1-7.9,0.1-11.8c1.4-4.7,4.5-7.9,9.3-9.1c2.4-0.6,4.7-0.4,7.1,0.1
		c1,0.2,1,0.2,1.4-0.7c1-2.5,2.3-4.9,3.9-7.1c2.7-3.8,6.3-6.5,10.8-7.9c4.8-1.6,9.5-0.8,13.9,1.5c5.5,2.9,9.6,7.2,12.9,12.4
		c3.2,5.2,5,11,6.2,17c0.1,0.4,0.1,0.8,0.3,1.2C300.3,110.8,300.5,110.8,300.5,110.7z M261.4,166.8c0.2,6.8,0.4,13.6,0.5,20.4
		c0.1,5.8,0.4,11.6,0.5,17.4c0.1,2.8,0.1,5.5,0.1,8.3c0,1.3,0,1.4,1.3,1.4c4.7,0.1,9.3,0.7,14,1.3c0.1,0,0.2,0,0.3,0
		c1,0.1,1,0.1,1.1-0.9c0.1-1.1,0.2-2.1,0.2-3.2c0.2-3.5,0.3-6.9,0.5-10.4c0.2-3.4,0.4-6.7,0.5-10.1c0.1-1.1,0.2-2.2,0.3-3.3
		c0.5-5.9,1-11.8,1.5-17.6c0.6-6.8,1.2-13.6,2.1-20.4c0.3-2.5,0.6-5,1.1-7.4c0.1-0.3,0.1-0.5,0.1-0.8c0.1-0.4,0-0.6-0.5-0.6
		c-4.1-0.1-8.3-0.6-12.4-0.8c-3.8-0.3-7.6-0.5-11.3-1c-0.8-0.1-1.5-0.2-2.4-0.3C260.4,148.3,261,157.5,261.4,166.8z M318.9,144.6
		c-0.2-0.1-0.5-0.1-0.7-0.1c-5-0.6-10.1-1.3-15.1-1.9c-0.4,0-0.8-0.2-1.1,0c-0.2,8.9-1.6,17.7-2.6,26.5c-0.8,6.6-1.8,13.1-2.6,19.6
		c-0.4,3.3-0.8,6.5-1.4,9.7c-0.5,2.8-1.1,5.6-1.7,8.4c-0.5,2.4-1,4.7-1.6,7.1c-0.3,1.2-0.7,2.3-1.3,3.4c0.3,0.2,0.7,0.2,1,0.3
		c2.3,0.3,4.7,0.5,7,0.8c2.1,0.2,4.2,0.7,6.4,1c1,0.2,1,0.2,1.3-0.8c0.6-2.2,1.1-4.5,1.6-6.7c1-4.1,2.1-8.2,3.2-12.4
		c1.2-4.8,2.4-9.5,3.6-14.3c3-11.9,6.1-23.8,10.3-35.4c0.4-1.1,0.9-2.1,1.4-3.3C323.8,145.9,321.3,145.3,318.9,144.6z M275.2,134.9
		c-3.4-2-6.7-4.2-9.3-7.2c-4-4.6-6.8-9.7-7.7-15.8c-0.8-5.2,0.2-10.1,2.9-14.6c1.1-1.9,2.6-3.5,4.4-4.8c2.3-1.6,4.8-2.4,7.6-1.9
		c2,0.3,3.7,1.3,5.3,2.6c2.4,1.9,4.2,4.1,5.9,6.6c5,7.6,7.7,16,8.1,25.1c0.1,2.9,0.2,5.7-0.1,8.5c-0.2,1.8-0.4,3.6-1,5.3
		c0.8,0.3,1.7,0.2,2.4,0.3c0.3,0,0.5-0.1,0.6-0.4c2.1-6.4,4-12.9,3.9-19.8c-0.1-8.3-1.6-16.3-5.4-23.8c-2.5-4.9-6.2-8.9-10.8-11.9
		c-2.2-1.4-4.5-2.4-7-2.7c-3.2-0.4-6.2,0-9.1,1.5c-3.3,1.8-5.9,4.2-7.7,7.5c-2.7,4.9-4.6,10.1-5.2,15.6c-0.7,5.9,0.4,11.5,3.7,16.6
		c2.8,4.3,6.4,8,10.7,10.9c2.7,1.8,5.5,3,8.6,3.9c0.3,0.1,0.6,0.1,0.9,0.2c0.2,0,0.5,0,0.7,0c0-0.1,0-0.2,0.1-0.2
		C276.9,135.8,276,135.4,275.2,134.9z M289.5,141.3c-0.3,0-0.7,0-1.1,0c-0.3,0-0.4,0.1-0.4,0.4c0,10.6-1.5,21.1-2.5,31.6
		c-0.5,5.3-1,10.6-1.4,15.9c-0.4,5.3-0.9,10.7-1.3,16c-0.3,3.4-0.5,6.9-0.8,10.3c0,0.5,0.1,0.7,0.6,0.8c1.7,0.2,3.4,0.4,5.1,0.6
		c0.5,0.1,0.6-0.2,0.8-0.6c0.9-3.2,1.5-6.5,2.2-9.7c2-10.2,3-20.6,4.3-30.9c1.2-9.8,2.2-19.6,3.6-29.3c0.2-1.1,0.3-2.2,0.5-3.4
		c0.1-0.6-0.1-0.8-0.7-0.9C298.3,142,290.1,141.3,289.5,141.3z M301.2,129.2c3.8-7.6,8.2-14.6,14.2-20.7c1.6-1.6,3.3-3,5.3-4.1
		c2.7-1.5,5.5-2.4,8.6-1.9c3.8,0.6,5.9,3.1,6.3,6.8c0.3,2.8-0.4,5.3-1.5,7.9c-1.5,3.5-3.8,6.3-6.6,8.9c-5.9,5.4-12.6,9.3-20.1,12
		c-0.3,0.1-0.6,0.2-0.9,0.3c-0.1,0-0.1,0.1-0.3,0.2c1.8,0.1,3.5-0.2,5.2-0.3c5.4-0.2,10.7-1.4,15.6-3.7c4.5-2.1,8.6-4.7,12.2-8.1
		c3.3-3.2,5.2-7.2,5.8-11.7c0.5-3.8,0.2-7.5-1.4-11c-2.5-5.7-8-9.1-14.2-8.8c-5.9,0.3-10.8,2.9-15,6.8c-4.3,4-7.2,9-9.5,14.3
		c-1.6,3.8-2.7,7.7-3.9,11.7c-0.4,1.2-0.8,2.4-1.1,3.7c0.1,0,0.1,0.1,0.2,0.1C300.5,130.7,300.8,129.9,301.2,129.2z M289.2,134.2
		c0.6-6.4,0.8-12.8-0.6-19.1c-1.3-6.1-4.1-11.5-7.9-16.4c-1.6-2.1-3.6-3.9-6.1-4.9c-2-0.8-3.9-0.7-5.7,0.4c-2.5,1.5-4.2,3.8-5.3,6.5
		c-0.2,0.5,0.1,0.7,0.4,1c2.3,2,4.5,4.2,6.6,6.5c6.3,7,11.8,14.5,15.9,22.9c0.8,1.6,1.5,3.2,2.1,4.8c0.1,0.2,0.1,0.4,0.4,0.5
		C288.9,135.6,289.1,134.9,289.2,134.2z M316.4,130.1c3.8-2.3,7.4-4.8,10.4-8.1c1.4-1.5,2.7-3.1,3.8-4.9c0.4-0.7,0.4-0.7-0.3-1
		c-2.8-1.4-5.9-2-9.1-2c-2.9,0-5.6,0.7-8.2,2c-0.5,0.2-0.9,0.5-1.3,1c-3.8,5.2-7.3,10.5-9.7,16.5c-0.4,1-0.8,2.1-1.3,3.4
		C306.3,135.1,311.5,133.1,316.4,130.1z M248.1,121.7c-1.7-2-2.8-4.3-3.1-7c-0.3-2.7,1-5,3.6-5.9c0.7-0.2,0.9-0.5,0.8-1.2
		c-0.2-3.1,0.5-6.1,1.3-9.1c0.2-0.9,0.2-0.9-0.7-1.1c-2-0.3-3.9-0.3-5.8,0.4c-3.3,1.1-5.2,3.5-6.1,6.7c-0.9,3.4-0.5,6.8,0.1,10.2
		c0.5,2.3,1.3,4.4,2.4,6.5c0.3,0.6,0.7,0.8,1.4,0.9c2.7,0.2,5.4,0.9,8,1.8C249.4,123.1,248.7,122.4,248.1,121.7z M261.6,108.3
		c0,1.2,0.1,2.5,0.2,3.7c0.1,0.5,0.3,0.9,0.7,1.2c7.1,5.4,13.4,11.7,19.4,18.2c0.7,0.7,1.3,1.5,2,2.2c-5.4-11.1-12.4-21-21.5-29.6
		C261.7,105.6,261.6,107,261.6,108.3z M263.3,117.5c2.3,6,6.2,10.7,11.6,14.1c1.3,0.8,2.9,1.2,4.4,1.6c0.5,0.2,1,0.5,1.6,0.4
		c-0.9-2-14.5-14.8-17.6-16.7C263.1,117.1,263.3,117.3,263.3,117.5z M318.2,111.2c4.4-0.5,8.6,0,12.7,1.8c0.2,0.1,0.4,0.2,0.6,0.3
		c0.4,0.2,0.7,0.2,0.8-0.3c0.1-0.7,0.2-1.4,0.4-2.1c0.1-0.7-0.2-1-0.8-1.2c-3.1-1.3-6.2-2.2-9.6-2.5c-0.4,0-0.8,0-1.1,0.2
		c-1.6,1.1-3.1,2.4-4.4,3.8c0,0,0,0.1-0.1,0.2C317.2,111.5,317.7,111.3,318.2,111.2z M264.3,134.5c-3.9-2.2-7.7-4.6-11.7-6.6
		c-2.3-1.1-4.7-2-7.2-2.4c-0.4-0.1-0.8-0.1-1.3,0c5.6,5.6,12.8,7.9,20.3,9.5C264.5,134.6,264.4,134.6,264.3,134.5z M340.3,130.3
		c-0.3,0.2-0.3,0.5-0.5,0.8c-1.7,4.7-5,7.7-9.7,9.3c-1.1,0.4-2.2,0.6-3.4,1c0.2,0.2,0.4,0.2,0.5,0.1c3.4-0.6,6.7-1.5,9.6-3.5
		c3.4-2.4,5.4-5.7,6.4-9.8c0-0.1,0-0.2,0-0.3c0-0.1,0-0.1-0.1-0.4C342.3,128.5,341.4,129.4,340.3,130.3z M249.7,111.8
		c-1.4,0.7-1.8,1.5-1.6,3c0.2,1.1,0.6,2.2,1.2,3.2c1.2,2.1,2.9,3.8,4.8,5.3C251.8,119.7,250.4,115.9,249.7,111.8z M304.5,111.2
		c-1.5,0.9-2.6,1.9-3.6,3c-0.2,0.2-0.3,0.5-0.3,0.7c0.1,1.5,0.2,2.9,0.3,4.4C302,116.6,303.1,114,304.5,111.2z M331.8,106.8
		c-0.9-1.6-3.1-2.2-5.4-1.6C328.4,105.7,330,106.2,331.8,106.8z"/>
	<g>
		<path class="st20" d="M135.7,349.5c-4.1,0-5.8-4.9-5.8-17c0-8.5,1.8-17,5.8-17c4.1,0,5.8,7.4,5.8,7.5l4.5-0.9
			c-0.1-0.5-2.4-11.1-10.3-11.1c-6.6,0-10.4,7.9-10.4,21.5c0,4.8,0.2,9.8,1.3,13.7c1.9,6.4,6,7.8,9,7.8c5.5,0,8-4.8,9-7.7
			c1.2-3.4,1.4-6.7,1.4-6.8l-4.6-0.2C141.5,339.4,140.8,349.5,135.7,349.5z"/>
		<path class="st20" d="M161.3,330.1C161.3,330.1,161.3,330.1,161.3,330.1c-2.4,0-4.6,0.9-6.2,2.6c-0.1,0.1-0.3,0.3-0.4,0.4
			l-0.4-21.5l-4.6,0.1l0.8,37.3c0,0.4,0,0.6,0,0.7h0l0.1,3.1l4.6-0.1l-0.1-3.9c0-3.2,0.6-10.1,3.4-12.9c0.8-0.9,1.8-1.3,2.9-1.2
			c0.9,0,1.7,0.4,2.5,1.1c1.6,1.7,2.8,5.2,3.3,9.9c0.4,3.8,0.3,7.2,0.3,7.2l4.6,0.2c0.1-1.5,0.5-14.8-4.8-20.4
			C165.4,331,163.5,330.1,161.3,330.1z"/>
		<path class="st20" d="M191.1,311.5C191.1,311.5,191.1,311.5,191.1,311.5c-2.5,0-7.3,1.4-11,10.5v-10.3h-4.6v41.7h4.6
			c0-27.2,6.7-37.4,11-37.4c0,0,0,0,0,0c2.9,0,6,4.9,6,13.2l4.6,0C201.6,318.8,197.2,311.5,191.1,311.5z"/>
		<path class="st20" d="M208.6,311.4c-1.9,0-3.4,1.5-3.4,3.4s1.5,3.4,3.4,3.4c1.9,0,3.4-1.5,3.4-3.4S210.5,311.4,208.6,311.4z"/>
		<rect x="206.4" y="321.1" class="st20" width="4.6" height="31.4"/>
		<path class="st20" d="M231.9,316.1c2.8,1.2,4.3,4.1,4.3,8.5h4.6c0-8.5-4.4-11.6-7.1-12.7c-4.7-2-10.8-0.6-14.7,3.1
			c-3.3,3.2-4.2,7.5-2.5,11.8c1.7,4.4,5.8,6.9,9.3,9.2c2.5,1.6,4.9,3.1,6.2,5.1c1,1.4,1.8,3.5,0.5,5.4c-1.3,1.8-4.1,2.6-6.6,1.9
			c-1.9-0.5-5.2-2.4-5.8-9l-4.5,0.4c0.8,9.7,6.7,12.3,9.1,13c1,0.3,2,0.4,3,0.4c3.4,0,6.6-1.5,8.5-4.1c1-1.4,3.1-5.4-0.4-10.6
			c-1.8-2.7-4.8-4.6-7.6-6.4c-3.3-2.1-6.3-4-7.5-7c-1.3-3.2,0.1-5.5,1.5-6.8C224.8,315.7,228.9,314.8,231.9,316.1z"/>
		<polygon class="st20" points="255.9,311.7 251.4,311.7 251.4,319.7 244.4,319.7 244.4,324.3 251.4,324.3 251.4,352.9 255.9,352.9 
			255.9,324.3 262.9,324.3 262.9,319.7 255.9,319.7 		"/>
		<path class="st20" d="M302.1,314.8c-1.6-1.7-3.5-2.5-5.6-2.5c-1.6,0-3.1,0.7-4.4,2c-1.9,1.9-3.3,5.3-4.3,10.1
			c-1.1-4.4-2.6-8.1-4.8-10.2c-1.5-1.4-3.3-2.1-5.1-1.9c-2.7,0.2-5,1.9-6.7,5.1v-5.6h-4.6v31.1c-0.2,5.7,0,9.9,0,10.2l4.6-0.1v-9.9
			c0.1-2.7,0.2-5.8,0.6-8.8c1.6-15.8,5.4-17.3,6.5-17.4c0.4,0,0.9,0,1.7,0.7c4,3.8,5.6,18.7,5.9,29.9c0,3.1,0,5.2,0,5.4l4.6,0
			c0-0.8,0-2.9,0-5.8c0.2-11.3,1.5-25.9,5.1-29.6c0.6-0.6,1-0.6,1.1-0.6c0.5,0,1.3,0.1,2.3,1.1c5.3,5.7,5.3,27.1,4.8,34.9l4.6,0.3
			c0-0.3,0.4-7.5,0-15.7C307.5,325.9,305.5,318.3,302.1,314.8z"/>
		<path class="st20" d="M335.9,317.2c-2.8-2.8-6.6-4.9-11-4.9c-8.5,0-12.9,10.1-12.9,20c0,5.1,1.1,9.9,3.2,13.4
			c2.6,4.4,6.4,6.7,11,6.7c3.9,0,7.2-1.4,9.7-4.2v4.7h4.6v-40.9h-4.6V317.2z M335.9,337.4c-0.2,1.2-1.6,10.4-9.7,10.4
			c-4.8,0-9.7-4.8-9.7-15.5c0-4.2,0.9-8.2,2.5-11.1c2-3.6,4.3-4.4,5.9-4.4c6.2,0,11,6.5,11,9.7V337.4z"/>
		<path class="st20" d="M356.7,332.1c-3.3-2.1-6.3-4-7.5-7c-1.3-3.2,0.1-5.5,1.5-6.8c2.5-2.5,6.7-3.4,9.7-2.2
			c2.8,1.2,4.3,4.1,4.3,8.5h4.6c0-8.5-4.4-11.6-7.1-12.7c-4.7-2-10.8-0.6-14.7,3.1c-3.3,3.2-4.2,7.5-2.5,11.8
			c1.7,4.4,5.8,6.9,9.3,9.2c2.5,1.6,4.9,3.1,6.2,5.1c1,1.4,1.8,3.5,0.5,5.4c-1.3,1.8-4.1,2.6-6.6,1.9c-1.9-0.5-5.2-2.4-5.8-9
			l-4.5,0.4c0.8,9.7,6.7,12.3,9.1,13c1,0.3,2,0.4,3,0.4c3.4,0,6.6-1.5,8.5-4.1c1-1.4,3.1-5.4-0.4-10.6
			C362.4,335.7,359.5,333.9,356.7,332.1z"/>
	</g>
	<g>
		<polygon points="138,126.5 133.4,126.5 133.4,134.5 126.4,134.5 126.4,139 133.4,139 133.4,167.7 138,167.7 138,139 145,139 
			145,134.5 138,134.5 		"/>
		<path d="M160.2,144.9C160.2,144.9,160.2,144.9,160.2,144.9c-2.4,0-4.6,0.9-6.2,2.6c-0.1,0.1-0.3,0.3-0.4,0.4l-0.4-21.5l-4.6,0.1
			l0.8,37.3c0,0.4,0,0.6,0,0.7h0l0.1,3.1l4.6-0.1l-0.1-3.9c0-3.2,0.6-10.1,3.4-12.9c0.8-0.9,1.8-1.3,2.9-1.2c0.9,0,1.7,0.4,2.5,1.1
			c1.6,1.7,2.8,5.2,3.3,9.9c0.4,3.8,0.3,7.2,0.3,7.2l4.6,0.2c0.1-1.5,0.5-14.8-4.8-20.4C164.4,145.7,162.4,144.9,160.2,144.9z"/>
		<path d="M177.9,126.2c-1.9,0-3.4,1.5-3.4,3.4c0,1.9,1.5,3.4,3.4,3.4c1.9,0,3.4-1.5,3.4-3.4C181.3,127.7,179.8,126.2,177.9,126.2z"
			/>
		<rect x="175.6" y="135.9" width="4.6" height="31.4"/>
		<path d="M197.5,146.9c-3.3-2.1-6.3-4-7.5-7c-1.3-3.2,0.1-5.5,1.5-6.8c2.5-2.5,6.7-3.4,9.7-2.2c2.8,1.2,4.3,4.1,4.3,8.5h4.6
			c0-8.5-4.4-11.6-7.1-12.7c-4.7-2-10.8-0.6-14.7,3.1c-3.3,3.2-4.2,7.5-2.5,11.8c1.7,4.4,5.8,6.9,9.3,9.2c2.5,1.6,4.9,3.1,6.2,5.1
			c1,1.4,1.8,3.5,0.5,5.4c-1.3,1.8-4.1,2.6-6.6,1.9c-1.9-0.5-5.2-2.4-5.8-9l-4.5,0.4c0.8,9.7,6.7,12.3,9.1,13c1,0.3,2,0.4,3,0.4
			c3.4,0,6.6-1.5,8.5-4.1c1-1.4,3.1-5.4-0.4-10.6C203.2,150.5,200.3,148.6,197.5,146.9z"/>
	</g>
	<g>
		<path class="st20" d="M192.4,177c0,0,0.1,1.4,0.2,3.5c-0.8-0.9-1.6-1.7-2.5-2.3c-2.7-2-5.6-2.7-8.5-2c-6.1,1.4-10.5,8.4-10.3,16.4
			c0.1,5.3,3.8,9.6,9.4,11c1.2,0.3,2.4,0.5,3.7,0.5c2.9,0,5.9-0.8,8.5-2.6c-0.3,5.3-0.8,7.6-1.2,8.6c-1.7,4.2-4.5,6.2-7.7,5.6
			c-2.9-0.6-5.9-3.4-5.9-7.3h-4.6c0,5.6,4.1,10.7,9.6,11.7c0.7,0.1,1.3,0.2,2,0.2c1.9,0,3.6-0.5,5.3-1.5c2.4-1.5,4.2-3.8,5.5-7.1
			c2.9-7.3,1.2-32.2,1-35L192.4,177z M181.9,199.2c-2.8-0.7-5.9-2.8-5.9-6.7c-0.1-5.6,2.9-10.9,6.7-11.8c3.6-0.8,7.3,2.4,10.4,8.9
			c0,0.6,0,1.1,0,1.7c0,1.3,0,2.4,0,3.5C190.4,199.1,185.5,200.1,181.9,199.2z"/>
		<rect x="202.4" y="186.2" class="st20" width="4.6" height="31.4"/>
		<path class="st20" d="M204.7,176.5c-1.9,0-3.4,1.5-3.4,3.4c0,1.9,1.5,3.4,3.4,3.4c1.9,0,3.4-1.5,3.4-3.4
			C208.1,178,206.5,176.5,204.7,176.5z"/>
		<path class="st20" d="M227.2,176.6C227.2,176.6,227.2,176.6,227.2,176.6c-2.5,0-7.3,1.4-11,10.5v-10.3h-4.6v41.7h4.6
			c0-27.2,6.7-37.4,11-37.4c0,0,0,0,0,0c2.9,0,6,4.9,6,13.2l4.6,0C237.7,183.9,233.4,176.6,227.2,176.6z"/>
		<rect x="241.4" y="176.9" class="st20" width="4.6" height="41"/>
	</g>
	<path class="st1" d="M157.9,276.4c-0.2,0.9-0.4,1.7-0.5,2.6c-0.7,3.4-1.5,6.8-2.7,10c-0.5,1.4-1.1,2.7-1.9,3.9
		c-1.1,1.6-2.5,2.6-4.6,2.9c-1.2,0.2-2.4,0-3.6-0.4c-2.1-0.7-3.9-2-5.5-3.5c-1.7-1.6-3.1-3.5-4.3-5.5c-3.1-4.9-5.2-10.3-6.7-15.8
		c-0.9-3.2-1.6-6.5-2.1-9.8c-0.1-0.3-0.1-0.6-0.3-0.9c-0.4,0-0.6,0.3-0.9,0.4c-3.2,1.7-6.6,2.8-10.3,3.4c-4.7,0.7-9.2,0.2-13.3-2.4
		c-0.5-0.3-0.8-0.2-1.2,0.1c-2.9,2.3-6.3,3.9-10.1,4.7c-5,1-9.8,0.3-14.4-1.8c-6.3-2.9-10.2-7.7-12.2-13.9
		c-1.2-3.8-1.6-7.6-0.7-11.5c0.1-0.5,0-0.8-0.4-1.2c-4.4-3.7-7.1-8.3-8-13.7c-0.6-3.4-0.4-6.8,1-10.1c0.9-2.1,2.3-3.9,4.3-5.3
		c4.3-3.1,10-1.7,13,1.6c0,0,0.1,0.1,0.1,0.2c0.3,0.3,0.6,0.7,0.2,1c-0.3,0.3-0.8,0.4-1.2,0.2c-0.5-0.2-0.7-0.5-1-0.8
		c-1.8-1.9-5.9-3.1-8.9-0.4c-0.4,0.4-0.8,0.7-1.1,1.1c-1.6,1.8-2.4,3.9-2.6,6.1c-0.7,6.2,1.3,11.6,5.4,16.5c0.2,0.2,0.3,0.5,0.7,0.6
		c0.3-0.2,0.4-0.6,0.5-0.9c1.6-3,3.9-5.5,7.1-7.1c1.5-0.8,3.1-1.3,4.7-1.4c3.7-0.2,7.6,1.8,9.2,5.4c1.4,3.2,0.4,6.8-2.7,9
		c-3,2.1-6.4,2.8-10.1,2.5c-2.1-0.2-4.2-0.7-6.2-1.6c-0.1,0.6-0.2,1.1-0.1,1.6c0.2,6.6,2.4,12.5,7.5,17.2c2.9,2.7,6.4,4.4,10.5,4.9
		c3.1,0.4,6.2-0.1,9.1-1.3c2-0.8,3.8-1.9,5.4-3.2c0-0.3-0.3-0.5-0.5-0.7c-3.7-4-5-8.6-4.6-13.7c0.2-1.7,0.6-3.4,1.5-4.9
		c1-1.6,2.3-2.8,4.2-3.2c2.8-0.7,5.2,0.1,7,2.1c1.3,1.3,1.9,3,2.1,4.7c0.4,2.8-0.2,5.5-1.4,8.1c-1,2.4-2.5,4.5-4.2,6.5
		c-0.5,0.6-0.5,0.6,0.1,1c2.1,1.5,4.4,2.3,7,2.5c4.7,0.3,9.1-1,13.2-3c0.7-0.3,1.6-0.6,2-1.2c0.3-0.6,0-1.4-0.1-2.1
		c-0.8-7.1-1.2-14.1-0.8-21.2c0.4-7.5,1.6-14.9,4.1-22.1c0.9-2.7,2.2-5.4,3.8-7.8c1.2-1.9,2.7-3.6,4.6-4.9c1.2-0.8,2.6-1.5,4.2-1.6
		c2.1-0.2,3.9,0.6,5.5,1.9c1.2,1,2.1,2.3,2.8,3.7c1.5,2.9,2.4,5.9,2.5,9.1c0.4,7.5-1.3,14.6-4.3,21.5c-3.3,7.7-8,14.6-14.5,20.3
		c-0.5,0.5-0.5,1-0.4,1.5c0.5,3.4,1,6.8,1.8,10.1c1.4,6,3.2,11.8,5.6,17.5c1,2.4,2.3,4.8,4,6.9c0.6,0.7,1.2,1.4,2,1.9
		c1.6,1.1,2.5,1,3.7-0.4c0.7-0.8,1.2-1.7,1.6-2.6c0.9-1.9,1.6-4,2.2-6c1.3-4.7,2.3-9.4,3.1-14.2c0.1-0.3,0-0.7,0-1.1
		c-0.1-1.1-0.2-2.1-0.1-3.2c0.1-0.6-0.2-1-0.8-1.2c-2.1-0.8-4-2-5.6-3.5c-4.2-4-5.5-10.5-3-15.4c1-2,2.5-3.7,4.4-5.1
		c3.3-2.4,7.1-3.8,11.3-3.8c5.1,0,9.4,1.8,13,5c3.4,3.1,5.7,6.8,7.2,11c0.5,1.4,0.9,2.8,1.3,4.2c0.1,0.3,0.1,0.6,0.3,0.8
		c0.2,0,0.4-0.1,0.6-0.2c2.4-1.2,4.9-2.5,7.3-3.7c0.6-0.3,0.7-0.6,0.6-1.2c-0.2-1.5-0.3-2.9-0.3-4.4c0-0.8,0.2-1.6,0.5-2.4
		c0.4-1.1,1.3-1.7,2.5-1.7c1.2,0,2.2,0.6,2.7,1.6c0.5,1.3,0.8,2.6,1,3.9c2.7,13.4,6.1,26.7,10.4,39.8c0.4,1.3,1,2.6,1.5,3.9
		c0.1,0.3,0.2,0.6,0.5,0.9c0.3-0.3,0.4-0.7,0.5-1.1c1.3-3.2,2.1-6.6,2.9-10c1.4-5.4,2.6-10.9,3.5-16.4c0.4-2.6,0.7-5.2,1.1-7.8
		c0.1-0.5-0.1-0.9-0.6-1.2c-3.1-1.7-5.7-3.9-7.8-6.5c-4.2-5.3-5.6-11.2-3.7-17.6c0.5-1.6,1.2-3.1,2.4-4.3c1.4-1.5,3.1-2.3,5.3-2
		c1.1,0.2,2,0.7,2.8,1.4c1,0.8,1.7,1.8,2.3,2.9c1.3,2.4,2.1,5,2.5,7.6c0.6,4.5,0.5,8.9,0.3,13.4c-0.1,1.2-0.1,2.3-0.3,3.5
		c-0.1,0.5,0.1,0.8,0.7,1c2.6,1.2,5.3,2,8.1,2.3c0.5,0.1,1.2,0.5,1.6,0.1c0.3-0.3,0.1-0.9,0.1-1.4c0.1-4.5,0.9-8.9,2.9-13
		c1-2.1,2.3-4,4.2-5.5c1.5-1.3,3.2-2.1,5.3-2.2c2.6-0.1,4.7,0.8,6.3,2.6c1.9,2.1,2.6,4.6,2.4,7.3c-0.5,7.1-6.7,12.1-12.5,13.6
		c-1.1,0.3-1.1,0.3-1,1.2c0.9,5.1,2.2,10,5,14.4c1.2,1.9,2.7,3.5,4.5,4.9c2.1,1.6,4.3,1.7,6.6,0.5c1.5-0.7,2.6-1.8,3.6-3
		c2-2.5,3.3-5.4,4.2-8.4c1.3-4.1,2.1-8.4,3-12.6c0.1-0.5,0-0.9-0.2-1.4c-1.5-3.8-2.5-7.6-2.9-11.6c-0.4-4.3,0.2-8.4,2-12.4
		c0.6-1.4,1.5-2.7,2.5-3.9c1.3-1.5,2.8-2.6,4.9-3c3.4-0.7,6,0.5,7.5,3c1.2,2.1,1.4,4.3,1.2,6.6c-0.2,1.6-0.7,3.2-1.3,4.8
		c-1.8,4.3-4.1,8.2-7.6,11.6c-0.3,0.3-0.4,0.5-0.3,0.9c1.1,3.2,2.5,6.3,4.1,9.4c0,0,0.1,0,0.2,0.1c0.3-0.2,0.4-0.6,0.6-0.8
		c2.6-4.2,5.5-8,9.2-11.4c3-2.7,6.4-4.7,10.5-5.7c3.8-0.9,7.5-0.8,11.2,0.5c0.9,0.3,0.8,0.3,1.4-0.3c4.5-4.9,10.3-7.9,17.1-9
		c6.8-1.1,13.1,0,18.9,3.5c0.6,0.4,0.6,0.4,1.2-0.2c2.9-2.8,6.1-5.3,9.8-7.1c2.5-1.2,5.2-1.9,8-1.6c4.4,0.3,8,2,10.4,5.6
		c1.4,2.1,1.4,4.4,0.7,6.7c-0.2,0.7-1,1.1-1.8,1c-0.8-0.1-1.3-0.6-1.4-1.3c-0.1-0.7-0.1-1.4-0.1-2.1c0.1-3.4-2.9-6.3-5.9-7
		c-2.6-0.6-5-0.5-7.4,0.5c-4.1,1.8-7.6,4.3-10.8,7.4c0.3,0.3,0.6,0.6,0.9,0.8c2.4,2.2,4.3,4.7,5.5,7.6c1.5,3.5,1.7,7.1,0.3,10.7
		c-0.8,2.1-2.2,3.9-4.3,5.3c-3.9,2.6-8.6,1.4-10.6-2.7c-1-2.1-1.1-4.3-1.1-6.5c0.1-4.9,1.7-9.4,4.6-13.6c0.4-0.6,0.4-0.6-0.2-1.1
		c-3-2.2-6.3-3.6-10.2-3.9c-8.7-0.5-16.1,2.3-22,8.2c-0.1,0.1-0.1,0.2-0.2,0.2c0.2,0.3,0.5,0.4,0.8,0.6c2.9,2.2,4.9,4.9,5.5,8.3
		c0.7,4-0.5,7.5-3.7,10.2c-0.9,0.8-2,1.4-3.3,1.6c-1.7,0.3-3.1-0.1-4.4-1c-1.5-1.2-2.3-2.7-2.7-4.5c-0.5-2.4-0.2-4.8,0.5-7.2
		c0.6-2.1,1.6-4,2.8-5.9c0.4-0.7,0.4-0.7-0.4-1c-3.4-1.5-6.9-1.4-10.5-0.3c-3.1,1-5.7,2.6-8.1,4.7c-4,3.5-7.1,7.7-9.7,12.3
		c-0.3,0.5-0.1,0.8,0.1,1.3c1.6,3.1,3.3,6.2,4.8,9.5c1.6,3.5,2.9,7,3.5,10.8c0.5,2.8,0.5,5.5-0.3,8.2c-0.6,1.8-1.6,3.4-3.1,4.6
		c-2.6,2.3-5.9,2.2-8.5-0.1c-2.1-1.9-3.2-4.3-3.9-6.9c-0.7-2.7-0.8-5.5-0.6-8.4c0.3-4.1,1.3-8,2.7-11.9c0.1-0.3,0.2-0.6,0-1
		c-1.4-2.8-2.8-5.5-4.2-8.3c0-0.1-0.1-0.2-0.3-0.2c-0.2,1-0.3,2-0.5,3c-0.6,3.4-1.4,6.8-2.7,10c-1,2.4-2.2,4.6-3.9,6.6
		c-1.9,2.2-4.4,3.8-7.4,4.3c-2.4,0.4-4.6,0.1-6.8-0.9c-2.5-1.2-4.6-2.9-6.6-4.7c-3.6-3.5-5.8-7.8-7-12.4c-0.4-1.5-0.7-3-0.9-4.5
		c-0.1-0.9-0.1-0.9-1-1c-2-0.2-4-0.4-6-0.9c-1.2-0.3-2.3-0.7-3.4-1.1c-0.6-0.2-0.7-0.2-0.8,0.4c-0.4,3.8-1,7.6-1.7,11.4
		c-1.4,7.1-2.9,14.2-5,21.2c-0.3,1.1-0.7,2.2-1.3,3.2c-0.3,0.6-0.7,1.1-1.3,1.5c-1.4,1-3.3,1-4.7-0.1c-0.8-0.6-1.4-1.4-1.9-2.2
		c-2.5-3.8-4.4-7.7-6-11.9c-2.5-6.4-4.2-13.1-5.6-19.8c-0.5-2.6-1.1-5.2-1.5-7.8c0-0.1-0.1-0.2-0.1-0.3c-0.3-0.1-0.4,0-0.6,0.1
		c-2.4,1.3-4.8,2.6-7.2,3.9c-0.8,0.4-0.8,0.3-0.7,1.2c1,6.2,1.1,12.3,0.2,18.5c-0.5,3.2-1.2,6.3-2.7,9.2c-0.5,1.1-1.2,2.1-2,3
		c-2.7,3-6.5,3.9-10.4,2.3c-2.6-1-4.6-2.7-6.4-4.7c-2.8-3.2-4.6-6.9-5.6-10.9c-0.1-0.4-0.2-0.7-0.3-1.1
		C158.1,276.4,158,276.4,157.9,276.4z M132.4,252.6c0.1,0,0.2,0,0.2,0.1c0.5-0.4,0.9-0.9,1.4-1.3c6.3-6.5,10.7-14,13.3-22.3
		c1.7-5.4,2.7-10.8,2.2-16.5c-0.3-2.9-1.1-5.8-2.7-8.3c-0.6-1-1.3-1.8-2.2-2.6c-1.3-1.1-2.3-1.1-3.7,0c-0.7,0.6-1.3,1.3-1.8,2
		c-1.1,1.6-1.8,3.3-2.4,5c-3,9-4.6,18.2-4.9,27.6c-0.2,4.6,0,9.2,0.4,13.8C132.2,250.9,132.3,251.8,132.4,252.6z M164.1,261.5
		c0,0.4,0,0.8,0,1.3c0,0.5,0.2,0.6,0.7,0.6c1.6,0,3.2-0.2,4.8-0.5c3.8-0.7,7.4-2,10.9-3.6c0.6-0.3,1.5-0.4,1.8-0.9
		c0.2-0.5-0.2-1.2-0.3-1.8c-1-4.1-2.5-8-5.2-11.4c-2-2.5-4.3-4.6-7.4-5.9c-2-0.9-4.2-1.3-6.4-1.2c-2.9,0.1-5.5,1.1-7.8,2.6
		c-4.5,3-6.5,7-5.5,12c0.7,3.8,2.8,6.8,6.5,8.8c0.8,0.5,0.9,0.4,1-0.4c0.1-1.6,0.4-3.2,0.9-4.8c0.3-1.2,0.8-2.3,1.5-3.3
		c0.6-0.8,1.3-1.4,2.4-1.6c1.7-0.3,3,0.6,3,2.2c0,0.3,0,0.6,0,0.9C164.6,256.8,164.2,259.1,164.1,261.5z M182.6,260.7
		c-0.4,0-0.5,0.1-0.8,0.2c-1.4,0.6-2.7,1.2-4.1,1.7c-4.1,1.6-8.4,2.7-12.9,2.8c-0.7,0-0.7,0-0.7,0.8c0.4,5.7,1.5,11.2,3.5,16.5
		c0.7,1.8,1.6,3.5,2.9,5c0.9,1.1,2,2.1,3.3,2.8c1.4,0.7,2.3,0.7,3.5-0.3c0.8-0.6,1.4-1.3,1.9-2.2c0.9-1.4,1.6-2.9,2.1-4.5
		c1.8-5.8,2.1-11.7,1.8-17.7C183.1,264.1,182.9,262.4,182.6,260.7z M220.6,254.6c0.1-1.7,0.3-3.3,0.3-4.8c0.1-3.9,0.2-7.8-0.5-11.7
		c-0.4-2.5-1.2-4.8-2.5-7c-0.4-0.7-0.9-1.3-1.5-1.8c-0.9-0.7-1.5-0.7-2.4,0c-0.8,0.6-1.3,1.5-1.7,2.4c-1.5,3.2-1.6,6.6-0.9,10
		c1,4.8,3.7,8.5,7.5,11.7C219.4,253.8,219.8,254.2,220.6,254.6z M75.4,239.9c2.3,0.1,4.6-0.8,5.9-1.8c2.3-1.6,3.1-4.2,2.2-6.8
		c-1.1-3-4.8-5.7-9.2-3.5c-0.8,0.4-1.5,0.8-2.1,1.4c-2.5,2.1-3.9,4.7-4.8,7.6c-0.1,0.4,0,0.6,0.4,0.9
		C69.9,239.1,72.4,239.9,75.4,239.9z M347.8,242.9c-0.1,0.1-0.2,0.2-0.3,0.3c-0.2,0.2-0.3,0.4-0.5,0.6c-2.4,3.6-3.6,7.6-3.7,11.8
		c0,1.7,0.1,3.4,0.7,5c0.4,0.9,0.9,1.7,1.7,2.4c1.2,0.9,2.6,0.9,3.8,0c0.6-0.4,1.1-1,1.6-1.5c2-2.5,2.4-5.4,2-8.4
		c-0.5-3.5-2.1-6.6-4.4-9.3C348.4,243.6,348.2,243.2,347.8,242.9z M241.3,258.7c3.6-1.1,6.4-2.8,8.5-5.5c1.9-2.5,2.8-5.3,2.5-8.4
		c-0.2-1.5-0.8-2.9-1.9-4.1c-0.2-0.2-0.5-0.5-0.8-0.7c-1.4-1.1-2.8-1-4,0.3c-1.1,1.1-1.7,2.5-2.3,3.9c-1.3,3.3-1.8,6.7-2,10.1
		C241.1,255.7,241.1,257.1,241.3,258.7z M276.1,272.2c-0.4,0.9-0.6,1.6-0.8,2.4c-1.2,4.5-1.7,9.1-0.9,13.8c0.4,2.5,1.4,4.8,3.2,6.7
		c0.6,0.6,1.3,1.2,2.1,1.6c1,0.5,1.6,0.3,2.2-0.6c0.5-0.7,0.7-1.5,0.9-2.3c0.4-1.9,0.1-3.7-0.3-5.6c-0.8-3.1-2-6.1-3.2-9.1
		C278.3,276.9,277.3,274.6,276.1,272.2z M273.3,248.8c0.4-0.1,0.6-0.4,0.8-0.7c2.5-3,4.4-6.4,5.8-10c0.7-1.9,1.1-3.8,0.9-5.8
		c-0.1-1.5-0.6-2.8-1.5-4c-0.8-1-1.9-1.2-3.1-0.7c-0.5,0.2-0.9,0.5-1.3,0.9c-0.6,0.6-1,1.2-1.4,1.9c-0.9,1.9-1.4,3.8-1.6,5.9
		c-0.3,3.2,0.1,6.4,0.7,9.5C272.7,246.8,272.9,247.8,273.3,248.8z M101,257.6c1.7-1.6,3.7-4.9,4.6-7.5c0.6-2,0.9-3.9,0.6-6
		c-0.3-1.7-0.8-3.3-2.3-4.4c-1.8-1.5-3.9-1.2-5.3,0.6c-0.6,0.8-1,1.7-1.2,2.6c-1.1,5.2,0,9.9,3.2,14.3
		C100.7,257.3,100.9,257.4,101,257.6z M310.6,248c-0.7,1-1.3,1.9-1.7,2.9c-1.3,2.7-2.1,5.5-1.6,8.5c0.3,1.6,0.8,3,2.2,4.1
		c0.9,0.8,1.6,0.8,2.6,0c0.3-0.2,0.5-0.4,0.7-0.7c1.4-1.6,2.2-3.4,2.2-5.4c0-3.1-1.1-5.8-3.1-8.2C311.5,248.8,311.2,248.4,310.6,248
		z"/>
	<g>
		<path d="M320.4,284.1c-2.1-4.6-7.6-6.7-12.3-4.5c-4.6,2.1-6.7,7.6-4.5,12.3c2.6,5.6,7.6,6.7,12.3,4.5
			C320.5,294.3,322.5,288.8,320.4,284.1z"/>
		<path d="M344.4,284.1c-2.1-4.6-7.6-6.7-12.3-4.5c-4.6,2.1-6.7,7.6-4.5,12.3c2.6,5.6,7.6,6.7,12.3,4.5
			C344.5,294.3,346.5,288.8,344.4,284.1z"/>
		<path d="M368.3,284.1c-2.1-4.6-7.6-6.7-12.3-4.5c-4.6,2.1-6.7,7.6-4.5,12.3c2.6,5.6,7.6,6.7,12.3,4.5
			C368.4,294.3,370.5,288.8,368.3,284.1z"/>
	</g>
	<g>
		<path d="M116.6,181.2c-2.1-4.6-7.6-6.7-12.3-4.5c-4.6,2.1-6.7,7.6-4.5,12.3c2.6,5.6,7.6,6.7,12.3,4.5
			C116.7,191.3,118.8,185.8,116.6,181.2z"/>
		<path d="M140.6,181.2c-2.1-4.6-7.6-6.7-12.3-4.5c-4.6,2.1-6.7,7.6-4.5,12.3c2.6,5.6,7.6,6.7,12.3,4.5
			C140.7,191.3,142.8,185.8,140.6,181.2z"/>
		<path d="M164.6,181.2c-2.1-4.6-7.6-6.7-12.3-4.5c-4.6,2.1-6.7,7.6-4.5,12.3c2.6,5.6,7.6,6.7,12.3,4.5
			C164.7,191.3,166.7,185.8,164.6,181.2z"/>
	</g>
</g>
</svg>
