<?xml version="1.0" encoding="utf-8"?>
<!-- Generator: Adobe Illustrator 21.1.0, SVG Export Plug-In . SVG Version: 6.00 Build 0)  -->
<svg version="1.1" id="Calque_1" xmlns="http://www.w3.org/2000/svg" xmlns:xlink="http://www.w3.org/1999/xlink" x="0px" y="0px"
	 viewBox="0 0 432 432" style="enable-background:new 0 0 432 432;" xml:space="preserve">
<style type="text/css">
	.st0{fill:#437797;}
	.st1{fill:#CE7278;}
	.st2{fill:#5E84A1;}
	.st3{fill:#264B6E;}
	.st4{fill:#AF4650;}
	.st5{fill:#B31917;}
	.st6{fill:#07672F;}
	.st7{fill:#020203;}
	.st8{fill:#A3282E;}
	.st9{fill:#EAA35C;}
	.st10{fill:#014837;}
	.st11{fill:#921D25;}
	.st12{fill:#603914;}
	.st13{fill:#A67D52;}
	.st14{fill:#FFFFFF;}
	.st15{fill:#E52629;}
	.st16{fill:#C61622;}
	.st17{fill:#C69C6C;}
	.st18{fill:#0D71B9;}
	.st19{fill:#EB5B28;}
</style>
<g>
	<g>
		<g>
			<path class="st7" d="M100.1,75.9c-0.4-2.2,2.5-1.8,3.8-2c3.1,0,6.5,0.2,9.3,1.8c2.2,1.3,3.9,3.3,4.9,5.6
				c1.9,4.1,2.3,9.1-0.1,13.1c-2.8,4.6-7.9,7.5-13.1,8.1c-0.9,0.1-2.2,0.4-3-0.3c-0.5-0.4-0.8-1.1-0.7-1.7c0.1-0.9,0.8-1.2,1.6-1.2
				c0.8-0.1,1.1,0,1.1-1c0-0.7,0-1.4-0.1-2.2c-0.1-3.2-0.2-6.5-0.3-9.7c-0.1-1.7-0.1-3.3-0.2-5c0-0.8,0-1.5-0.1-2.3
				c0-0.5,0.1-1.1,0-1.7c-0.8,0-1.6,0.3-2.3-0.2C100.5,76.9,100.2,76.4,100.1,75.9z M106.8,98.8c0.6-0.1,1.7-0.7,1.9-0.7
				c0.7-0.3,1.4-0.6,2-1c1.4-0.8,2.5-1.9,3.6-3.1c1.2-1.4,2.2-2.9,2.5-4.7c0.3-2,0-4.1-0.8-5.9c-0.8-1.9-2-3.6-3.8-4.6
				c-1.7-0.9-3.6-1.1-5.4-1.3c-0.4,0-0.5-0.1-0.6,0.1c-0.1,0.3,0,1,0,1.3c0,1,0.1,2,0.1,3c0.1,2.2,0.1,4.3,0.2,6.5c0,0,0,0.1,0,0.1
				c0,0,0,0,0,0c0.1,1.8,0.1,3.7,0.2,5.5c0,0.9,0.1,1.8,0.1,2.7C106.8,97.4,106.7,98.1,106.8,98.8z"/>
			<path class="st7" d="M122,76.6c-0.6-0.9-0.1-2,0.8-2.4c1.2-0.5,2.8,0,4,0c2,0,4-0.1,6-0.2c1-0.1,2.6-0.4,3.3,0.6
				c0.5,0.8,0.1,1.8-0.6,2.3c-0.5,0.3-1.2,0.3-1.8,0.3c-1,0-2,0.1-2.9,0.1c-1,0.1-2,0.1-2.9,0.1c0.4,0-0.7,0-0.7-0.1
				c-0.1,0.2,0,1.2,0,1.4c0,1.9,0,3.8,0,5.6c0,0,0,0.1,0,0.1c0,2,0,3.9,0,5.9c0,0.1-0.1,1.2,0,1.4c0-0.1,0.9-0.1,0.9-0.1
				c0.6,0,1.2-0.1,1.7,0.2c0.8,0.4,1,1.4,0.5,2.2c-0.7,1.1-2,0.6-3.1,0.9c-0.2,0.8,0.1,2.1,0.1,2.9c0,0.3,0,0.6,0,1
				c-0.2,0.5,0,0.6,0.5,0.5c0.4,0.1,1.1,0,1.5-0.1c1.1,0,2.1-0.1,3.1-0.2c0.7,0,1.6-0.2,2.4,0c1.1,0.3,1.5,1.5,0.8,2.4
				c-0.9,1.1-2.9,0.8-4.1,0.9c-1.9,0.1-3.9,0.1-5.8,0.3c-1,0.1-2.6,0.5-3.3-0.6c-0.5-0.8,0-1.9,0.8-2.3c0.2-0.1,0.4-0.1,0.6-0.2
				c0,0,0.1,0,0.1,0c0,0,0-0.1,0-0.2c0.1-1,0-2,0-3c0-3.8,0-7.7,0-11.5c0-2.2,0-4.3,0-6.5c0-1.1,0.2-0.7-0.8-0.9
				C122.6,77.1,122.3,77,122,76.6z"/>
			<path class="st7" d="M138.9,102c-0.7-0.8-0.7-2.1,0.4-2.6c0.4-0.2,0.9-0.1,1.4-0.1c0.3,0,1,0.1,1.2,0c0.6-0.4,0.9-2.1,1.1-2.8
				c0.8-2.2,1.6-4.4,2.4-6.6c0.8-2.3,1.7-4.6,2.5-6.8c0.4-1.1,0.8-2.2,1.2-3.3c0.3-0.8,0.8-1.8,1.1-2.8c-1.1-0.1-2.3-0.3-2.3-1.8
				c0-2,3-1.5,4.3-1.5c1.5,0,3.8-0.5,4.5,1.3c0.5,1.6-1,1.9-2.1,1.9c0.1,0.5,0.4,1.1,0.5,1.5c0.2,0.6,0.4,1.3,0.7,1.9
				c0.4,1.1,0.8,2.2,1.1,3.3c0.8,2.4,1.6,4.8,2.4,7.1c0.8,2.2,1.5,4.4,2.3,6.7c0.1,0.3,0.2,1,0.4,1.5c0-0.2,0.6-0.2,1-0.2
				c0.6,0,1,0.1,1.5,0.6c0.8,0.8,0.8,2.1-0.3,2.6c-0.8,0.3-1.9,0.2-2.8,0.3c-1.1,0-2.2,0.1-3.3,0.1c-1.1,0-2.2-0.7-2.1-1.9
				c0.1-1.7,1.9-1.2,3-1.4c-0.2-0.8-0.6-1.6-0.8-2.4c-0.1-0.2-0.2-0.8-0.3-1c0,0.1-0.6,0-0.7,0c-1.6,0-3.2,0.1-4.8,0.2
				c-1.7,0.1-3.4,0-5.1,0.3c-0.9,0.1-0.9,1.1-1.2,1.9c-0.2,0.5-0.3,0.9-0.5,1.4c0.4,0,0.8,0.1,1.2,0.5c0.3,0.3,0.5,0.7,0.5,1.2
				c0.1,1.9-2.3,1.5-3.5,1.5c-1.1,0-2.3,0.1-3.4,0C139.7,102.6,139.2,102.4,138.9,102z M152.4,80.3c-0.1,0.4-0.3,0.9-0.3,1
				c-0.2,0.6-0.5,1.2-0.7,1.9c-0.4,1.2-0.8,2.3-1.3,3.5c-0.8,2.1-1.5,4.1-2.3,6.2c2.9-0.1,5.8-0.3,8.7-0.4
				C155.2,88.3,153.8,84.3,152.4,80.3z"/>
			<path class="st7" d="M186.6,101.7c-1.4,0.2-3.1,0.6-4.3-0.4c-0.4-0.3-0.8-0.8-0.8-1.3c0-0.3,0.1-0.6,0.4-0.8
				c0.6-0.5,1,0.1,0.9-0.8c-0.1-1.3-1.6-2.1-2.7-2.5c-1.2-0.3-2.3-0.3-3.5-0.3c-0.6,0-1.4-0.1-2,0c-0.6,0.1-0.5,0.1-0.6,0.6
				c-0.1,0.6,0,1.3,0,2c0,0.3,0,0.7,0,1c0.3,0,0.7-0.1,1.1,0.2c0.4,0.2,0.8,0.7,1,1.1c1,2.1-3.7,2.1-4.9,2.1c-0.9-0.1-2.2-1-2.1-2
				c0.1-1.3,1.7-0.5,1.9-1.6c0.1-0.5,0-1,0-1.5c0-0.3,0.1-1.1,0.1-1.7c-0.7-0.2-1.4-0.7-1.7-1.5c-0.3-0.7,0.1-1.3,0.8-1.6
				c0.6-0.2,0.5,0,0.7-0.6c0.1-0.5,0-1.2,0-1.7c0-2.6-0.1-5.1-0.1-7.7c0-1.2,0-2.3-0.1-3.5c0-0.8,0.1-1.9,0-2.8
				c-0.3,0.1-0.7,0.2-0.8,0.2c-0.4,0.1-0.8,0.2-1.1,0.2c-0.5-0.1-0.9-0.4-1.3-0.7c-0.4-0.4-0.7-0.7-0.7-1.3c0.1-1,1.3-1.1,2.1-1.2
				c4.3-0.9,9.2-0.8,13,1.5c3.1,1.9,5.4,5.2,5,8.9c-0.2,2.1-1.2,4.2-2.5,5.9c-0.6,0.8-1.3,1.5-2.1,2.2c-0.5,0.4-1.2,0.8-1.7,1.2
				c2.3,1,4.1,2.5,5.1,5c0,0.1,0.1,0.2,0.1,0.3c0.3,0,0.7,0,0.8,0.1c0.4,0.1,0.8,0.4,1.1,0.7c0.3,0.3,0.6,0.6,0.6,1
				C188.6,101.6,187.5,101.6,186.6,101.7z M175.6,92.1c0.4-0.1,0.8-0.3,1.2-0.4c3-1.2,5.6-3.6,6.7-6.7c0.6-1.6,0.7-3.3,0.1-4.8
				c-1-2.5-3.8-3.6-6.3-3.9c-0.9-0.1-1.8-0.2-2.7-0.2c-0.9,0.1-0.7,0-0.7,0.7c0,0.5,0,1,0,1.5c0,2.1,0.1,4.3,0.1,6.4
				c0,2.1,0.1,4.2,0.1,6.3c0,0.5,0,1,0,1.4c0,0,0,0,0,0C174.5,92.2,175.2,92.2,175.6,92.1z"/>
			<path class="st7" d="M206.3,98.3c-0.2-0.5-0.3-1.2-0.6-1.8c-0.8-0.2-1.5-0.1-1.9-1.1c-0.3-0.8-0.1-1.7,0.7-2.1
				c0.6-0.2,1.3-0.2,1.9-0.3c0.7-0.1,1.5-0.5,2.3-0.4c0.8,0.1,1.4,0.9,1.5,1.7c0,0.4-0.1,0.9-0.4,1.3c-0.3,0.3-0.7,0.3-1,0.5
				c-0.5,0.5,1,2.1,1.6,2.5c2.4,1.4,6.1,0.6,7.5-1.8c1.9-3.3-1.2-6.1-3.8-7.7c-2.2-1.3-4.6-2.4-6.4-4.3c-1.5-1.6-2.7-3.5-2.3-5.8
				c0.4-2.1,1.8-4,3.7-4.9c2-1,4.5-1.3,6.6-0.4c1,0.4,1.8,1,2.5,1.8c0.5,0.6,0.8,1.4,1.2,2c0.5-0.1,0.9-0.3,1.5,0
				c0.4,0.3,0.7,0.8,0.8,1.2c0.3,1.6-1.5,2.1-2.6,2.6c-1.2,0.5-2.4,1.1-3.3-0.2c-0.7-1.1-0.2-2,0.8-2.5c-0.8-1.9-2.9-2.6-4.9-2.1
				c-1.2,0.3-2.3,1.1-2.9,2.3c-0.9,1.6,0.1,3.1,1.4,4.1c3.1,2.5,7,3.6,9.5,6.9c2.1,2.7,2.6,6.1,0.7,9.1c-1.8,2.8-5.5,4.1-8.7,3.4
				c-1.5-0.3-3-1.1-4-2.2C207.1,99.7,206.6,99.1,206.3,98.3z"/>
			<path class="st7" d="M224.2,102c-0.7-0.8-0.7-2.1,0.4-2.6c0.4-0.2,0.9-0.1,1.4-0.1c0.3,0,1,0.1,1.2,0c0.6-0.4,0.9-2.1,1.1-2.8
				c0.8-2.2,1.6-4.4,2.4-6.6c0.8-2.3,1.7-4.6,2.5-6.8c0.4-1.1,0.8-2.2,1.2-3.3c0.3-0.8,0.8-1.8,1.1-2.8c-1.1-0.1-2.3-0.3-2.3-1.8
				c0-2,3-1.5,4.3-1.5c1.5,0,3.8-0.5,4.5,1.3c0.5,1.6-1,1.9-2.1,1.9c0.1,0.5,0.4,1.1,0.5,1.5c0.2,0.6,0.4,1.3,0.7,1.9
				c0.4,1.1,0.8,2.2,1.1,3.3c0.8,2.4,1.6,4.8,2.4,7.1c0.8,2.2,1.5,4.4,2.3,6.7c0.1,0.3,0.2,1,0.4,1.5c0-0.2,0.6-0.2,1-0.2
				c0.6,0,1,0.1,1.5,0.6c0.8,0.8,0.8,2.1-0.3,2.6c-0.8,0.3-1.9,0.2-2.8,0.3c-1.1,0-2.2,0.1-3.3,0.1c-1.1,0-2.2-0.7-2.1-1.9
				c0.1-1.7,1.9-1.2,3-1.4c-0.2-0.8-0.6-1.6-0.8-2.4c-0.1-0.2-0.2-0.8-0.3-1c0,0.1-0.6,0-0.7,0c-1.6,0-3.2,0.1-4.8,0.2
				c-1.7,0.1-3.4,0-5.1,0.3c-0.9,0.1-0.9,1.1-1.2,1.9c-0.2,0.5-0.3,0.9-0.5,1.4c0.4,0,0.8,0.1,1.2,0.5c0.3,0.3,0.5,0.7,0.5,1.2
				c0.1,1.9-2.3,1.5-3.5,1.5c-1.1,0-2.3,0.1-3.4,0C225.1,102.6,224.6,102.4,224.2,102z M237.8,80.3c-0.1,0.4-0.3,0.9-0.3,1
				c-0.2,0.6-0.5,1.2-0.7,1.9c-0.4,1.2-0.8,2.3-1.3,3.5c-0.8,2.1-1.5,4.1-2.3,6.2c2.9-0.1,5.8-0.3,8.7-0.4
				C240.6,88.3,239.2,84.3,237.8,80.3z"/>
			<path class="st7" d="M277.7,76.2c-0.5,0.1-0.6,0-0.8,0.6c-0.1,0.3,0,0.9,0,1.3c0,3.5,0,7.1-0.1,10.6c0,3.5,0,6.9-0.1,10.4
				c0,0.4-0.1,0.8,0.2,1c0.1,0.1,0.4,0,0.5,0c0.3,0,0.7,0.1,1,0.3c0.6,0.5,0.6,1.4,0,1.9c-0.8,0.7-2.4,0.4-3.4,0.4
				c-1.1,0-2.4,0.2-3.5-0.1c-0.9-0.2-1.6-1.1-1-1.9c0.3-0.4,0.8-0.6,1.3-0.6c-0.4-0.9-1.4-1.9-1.9-2.7c-2.7-3.8-5.4-7.5-8.1-11.3
				c-1.2-1.7-2.4-3.3-3.6-5c-0.2-0.2-0.3-0.5-0.5-0.7c0,4,0,8,0,12c0,1.2,0,2.3,0,3.5c0,1,0.3,2.5,0,3.5c0,0.1,0,0.3,0,0.4
				c0,0,0,0,0.1,0c0.2,0,0.4,0,0.6,0c0.4,0.1,0.8,0.2,1,0.5c2,2.4-4.9,2.4-5.6,2.3c-0.9-0.1-2-0.6-1.5-1.7c0.4-0.9,1.7-0.5,2-1.4
				c0.1-0.5,0-1.3,0-1.9c0-0.5,0-1,0-1.5c0-1,0-2,0-3c0-2,0-4.1,0-6.1c0-2.2,0-4.4,0-6.6c0-0.9-0.2-2.1,0-3c0-0.1,0-0.4,0-0.5
				c-0.2,0-0.4,0-0.5,0c-1-0.1-2-1-1.2-2c0.8-1,2.8-0.7,3.9-0.9c0.9-0.1,2.6-0.5,3.1,0.7c0.2,0.6-0.1,0.8-0.3,1.2
				c-0.3,0.5-0.3-0.1-0.2,0.6c0,0.3,0.6,0.8,0.7,1c4.5,6.2,9,12.4,13.4,18.6c0-0.3,0-0.6,0-1c0-1,0-2,0-3c0-2,0-4,0-6.1
				c0-1.9,0-3.7,0-5.6c0-1,0-2,0-3c0-0.3,0-0.6,0-0.9c0,0,0-0.1,0.1-0.1c0,0,0,0-0.1,0c-0.7,0-1.7,0-2.1-0.8c-0.3-0.8,0.3-1.4,1-1.7
				c1.2-0.4,2.6-0.2,3.9-0.3c0.8-0.1,1.8-0.3,2.5,0.2c0.7,0.5,0.6,1.5-0.1,1.9C278.4,76.1,278,76.1,277.7,76.2L277.7,76.2z"/>
			<path class="st7" d="M296.7,74.6c0.4,0.8,0.6,2.2,0.3,3c-0.3,0.8-1.1,1.2-2,1c-1-0.3-1.1-1-1.3-1.8c-0.5,0-1.1,0.1-1.5,0.1
				c-0.3,0-1.6-0.1-1.8,0.1c-0.2,0.2,0,1.7,0,2c0,0.6,0,1.1,0,1.7c0,2.5,0.1,5,0.2,7.5c0,0.1,0,0.1,0,0.1c0,1.9,0.1,3.7,0.1,5.6
				c0,0.9,0,1.8,0.1,2.7c0,0.8-0.1,1.8,0,2.6c0.9,0.1,1.8,0,2.1,1.2c0.3,1.1-0.4,1.8-1.4,2c-1.3,0.2-7.6,0.7-6.2-2.4
				c0.2-0.4,0.6-0.7,1.1-0.8c0.2,0,0.4,0,0.6,0c0.7-0.1,0.2,0.2,0.4-0.3c0.3-0.7,0-2-0.1-2.8c0-0.8,0-1.7,0-2.5
				c-0.1-3.5-0.1-7-0.2-10.6c0-1,0-2-0.1-3c0-0.7-0.3-1.9,0-2.5c-0.1-0.2-0.1-0.3,0-0.3c0,0,0,0,0,0c-0.3-0.1-0.7,0-1,0
				c-0.3,0-0.8-0.1-1.1,0c-0.3-0.1-0.4-0.1-0.2,0.2c0,0.1,0,0.2,0,0.3c0.1,1.9-2.3,2.5-3.2,0.9c-0.5-0.9-0.8-2.9-0.1-3.8
				c0.6-0.9,1.8-0.9,2.7-0.9c3.4,0,6.7-0.3,10.1-0.3C295.3,73.5,296.2,73.7,296.7,74.6z"/>
			<path class="st7" d="M299.7,102c-0.7-0.8-0.7-2.1,0.4-2.6c0.4-0.2,0.9-0.1,1.4-0.1c0.3,0,1,0.1,1.2,0c0.6-0.4,0.9-2.1,1.1-2.8
				c0.8-2.2,1.6-4.4,2.4-6.6c0.8-2.3,1.7-4.6,2.5-6.8c0.4-1.1,0.8-2.2,1.2-3.3c0.3-0.8,0.8-1.8,1.1-2.8c-1.1-0.1-2.3-0.3-2.3-1.8
				c0-2,3-1.5,4.3-1.5c1.5,0,3.8-0.5,4.5,1.3c0.5,1.6-1,1.9-2.1,1.9c0.1,0.5,0.4,1.1,0.5,1.5c0.2,0.6,0.4,1.3,0.7,1.9
				c0.4,1.1,0.8,2.2,1.1,3.3c0.8,2.4,1.6,4.8,2.4,7.1c0.8,2.2,1.5,4.4,2.3,6.7c0.1,0.3,0.2,1,0.4,1.5c0-0.2,0.6-0.2,1-0.2
				c0.6,0,1,0.1,1.5,0.6c0.8,0.8,0.8,2.1-0.3,2.6c-0.8,0.3-1.9,0.2-2.8,0.3c-1.1,0-2.2,0.1-3.3,0.1c-1.1,0-2.2-0.7-2.1-1.9
				c0.1-1.7,1.9-1.2,3-1.4c-0.2-0.8-0.6-1.6-0.8-2.4c-0.1-0.2-0.2-0.8-0.3-1c0,0.1-0.6,0-0.7,0c-1.6,0-3.2,0.1-4.8,0.2
				c-1.7,0.1-3.4,0-5.1,0.3c-0.9,0.1-0.9,1.1-1.2,1.9c-0.2,0.5-0.3,0.9-0.5,1.4c0.4,0,0.8,0.1,1.2,0.5c0.3,0.3,0.5,0.7,0.5,1.2
				c0.1,1.9-2.3,1.5-3.5,1.5c-1.1,0-2.3,0.1-3.4,0C300.5,102.6,300,102.4,299.7,102z M313.2,80.3c-0.1,0.4-0.3,0.9-0.3,1
				c-0.2,0.6-0.5,1.2-0.7,1.9c-0.4,1.2-0.8,2.3-1.3,3.5c-0.8,2.1-1.5,4.1-2.3,6.2c2.9-0.1,5.8-0.3,8.7-0.4
				C316,88.3,314.6,84.3,313.2,80.3z"/>
			<path class="st7" d="M331.5,104.1c-0.6,0.3-1.4,0.2-2-0.2c-0.6-0.5-0.7-1.1-0.5-1.7c-0.5-0.3-1-0.7-1.2-1.3
				c-0.2-0.8,0.1-1.7,0.7-2.2c1.3-1.1,3.3-0.4,4,1C333.3,101.1,333,103.3,331.5,104.1z"/>
		</g>
		<g>
			<path class="st7" d="M82.9,121.9c0,0.8-1.7,1.7-2.4,1.8c-1,0.1-2.3,0.4-2.3,1.7c-0.2,3.1,0,3.5,0,4.6c0,0-0.1,13.8-0.1,13.8
				c0.2,3.5-0.4,9.2,0.1,11.6c0.5,2.8,0.2,4.9,0.6,9.3c0.2,3,0.4,5.9,0.3,8.8c0,0.6,0.1,1.2,0.2,1.8c0.2,0.9,0.5,1.4,1.6,1
				c0.2-0.1,0.5-0.1,0.7-0.2c0.7-0.1,1.3-0.4,1.9,0.2c0.7,0.6,1.3,1.2,1.4,2.3c0,0.5-0.2,0.9-0.7,1.1c-0.6,0.2-1.3,0.5-1.9,0.5
				c-1.5,0-3,0.1-4.5,0.2c-0.9,0.1-1.8,0-2.7,0.1c-1,0.2-1.8-0.2-2.6-0.7c-1.2-0.7-1.2-2.3,0-3c0.5-0.4,1.1-0.5,1.6-0.8
				c0.2-0.1,0.4-0.4,0.5-0.7c0.1-0.4,0.2-0.9,0.2-1.3c0.2-5.2,0.3-2.3,0-7.9c-0.1-1.7-0.9-16.1-0.6-20.5c0-1.3-0.2-3.2-0.1-5.4
				c0.3-3.6,0-3.5,0-11.4c0.1-3.3,0.2-5.1-1-5c-1,0-2.3,1.1-4.1-1.6c-0.6-0.9,0.3-1.5,1.3-1.8c0.1,0,8.7-0.8,8.8-0.8
				c0.3,0,0.6,0,1.1,0C82.1,120.3,82.6,120.2,82.9,121.9z"/>
			<path class="st7" d="M137,123c-0.4-1.3,2-3.2,3.8-1.5c1.2,1.4,0.2,0.7,0.2,5.1c0,4.8-1.4,12.2-1.5,17.3c-0.1,3-0.8,8.3-0.8,8.3
				c0.1,3.3-0.8,13-1.2,16.3c-0.2,1.6,0.1-2-0.7,9.3c-0.1,0.5-0.2,1-0.4,1.5c-0.2,0.9-1,1.2-1.8,1.3c-3.6,0.6-5.5-9.9-11.2-21.4
				c0-0.1-0.1-0.2-0.2-0.1c-0.1,0-0.3,0.1-0.3,0.1c-2.3,5.3-2.2,14.3-5.1,19.4c-0.2,0.4-0.6,0.7-1,1c-1.5,1-3.2,0.1-3.3-1.7
				c-0.1-1.2-10.8-57.3-9.6-57.7c0.4-0.2,0.9-0.4,1.3-0.4c0.9-0.1,1.3,0.2,1.5,1c0.1,0.2,0.2,0.5,0.3,0.9c0.2,2.9,1,5.6,1.5,8.4
				c0.1,0.5,0.3,0.9,0.3,1.4c-0.2,2.7,0.7,5.2,1.1,7.7c0.4,2.6,0.9,5.2,1.3,7.8c0.4,2.5,0.6,5,1.5,7.4c0.7,2,0.9,4.3,1.2,6.4
				c0.5,3.4,1.2,6.6,1.9,9.9c0.1,0.2,0.1,0.5,0.4,0.4c0.2-0.1,0.3-0.4,0.4-0.5c0.5-1.9,1-3.8,1.4-5.6c0.2-1,0.4-2,0.6-3
				c0.2-1,0.4-1.9,0.8-2.9c0.7-1.7,1-3.4,1.2-5.2c0-1.5,0.2-2.6,2.3-3.2c0.9-0.3,9.5,20.5,9.9,21.4c0.3,0.3,0.6,0.2,0.7-0.1
				c0.9-5.5,0.9-8.6,1.4-12.4C135,159.5,137.3,123.7,137,123z"/>
			<path class="st7" d="M169.5,176.7c0.6,1.8-1.4,5-3.2,3.7c-2.3-1.6-1.1-8.7-2.8-9c-18.4-3.3-14.4-2.5-17,7.9c-0.3,1-1.2,1.6-3,0
				c-1.7-1.1,0-2.2,0.6-5.4c2.4-9,4.7-30.2,9.6-49.9c0.5-1.8,0.7-4.2,2.7-4.2C161.5,119.7,163.1,157.4,169.5,176.7z M156.6,129.9
				c0-0.1-0.2-0.2-0.2-0.2c-0.6,0-2.8,12.1-2.9,12.7c-3.1,23.2-7.1,23.5-0.1,23.9c1.8,0,5.9,1.2,8.6,1.6
				C165.1,167.9,157,131.5,156.6,129.9z"/>
			<path class="st7" d="M174.8,179.7c0,0.5-0.3,0.7-0.7,0.8c-0.5,0.1-1.1,0.2-1.6,0.1c-1.2-0.2-1.8-1.2-1.4-2.4
				c0.4-1.4,0.4-2.7,0.4-4.2c-0.5-6.4-1.6-51.2-1.6-51.2c-0.1-0.1-0.1-0.2-0.1-0.2c-0.1-1.7,1.3-2.8,2.9-2.2
				c3.5,1.4,9.6,18.5,10.3,20.9c0,0,1.8,4.6,6.7,18.5c1,2.7,1.4,4.9,3.1,7.3c0.2,0.2,0.2,0.1,0.4-0.1c0-2-0.5-2.9-0.3-6.1
				c0,0-0.5-4.3-0.7-7.9c0-0.1-0.7-10.5-0.7-12.4c0.1-2.3-0.4-12.6-0.5-12.9c-0.7-3.9-1-7.5,1.8-8c1.2,0,2.9,1.2,2.6,3.3
				c-0.3,2,0.2,12.8,0.2,13.8c0.1,0.9,0.2,9.7,0.4,11c0.3,1.9,0.1,3.9,0.7,5.8c-0.5,4.5,9,70-21.4-21.1c-0.1-0.1-0.2-0.1-0.2-0.1
				C174.4,132.3,174.8,179.1,174.8,179.7z"/>
			<path class="st7" d="M215.5,124.7c-5.2,0-5.7-0.1-5.7,1c-0.5,14.2-0.4,44.2-0.4,43.1c0,0.6,0.1,7.1,0.5,8.8
				c0.9,4-5.2,4.5-5.2-0.4c0.5-9.3,0-26.2-0.1-26.5c0-0.1,0-0.3,0.1-0.5c0.2-1,1.3-25.9-0.7-26.3c-3.3-0.4-6.6,0-6-2.7
				c0.4-2.2,2.9-1.4,13.9-1.4c0.7-0.1,1.5-0.1,2.6-0.1C221.1,122.4,217.6,124.8,215.5,124.7z"/>
			<path class="st7" d="M250.8,121.9c0,0.8-1.7,1.7-2.4,1.8c-1,0.1-2.3,0.4-2.3,1.7c-0.2,3.1,0,3.5,0,4.6c0,9.2-0.3,11.2,0.4,30.8
				c0,1.3,0.1,2.6,0.2,3.8c0.2,3,0.4,5.9,0.3,8.8c0,0.6,0.1,1.2,0.2,1.8c0.2,0.9,0.5,1.4,1.6,1c3.1-0.8,4,1.1,4,2.3
				c0,0.5-0.2,0.9-0.7,1.1c-0.6,0.2-1.3,0.5-1.9,0.5c-1.5,0-3,0.1-4.5,0.2c-0.9,0.1-1.8,0-2.7,0.1c-1,0.2-1.8-0.2-2.6-0.7
				c-1.2-0.7-1.2-2.3,0-3c0.5-0.4,1.1-0.5,1.6-0.8c0.2-0.1,0.4-0.4,0.5-0.7c0.1-0.4,0.2-0.9,0.2-1.3c0.1-1.3,0.2-2.6,0.2-3.8
				c0-1.3-0.1-2.7-0.2-4.1c-0.8-9.7-0.8-41.5-0.8-41.5c-0.1-0.6-0.4-1-1.4-0.7c-2.4,0.8-4.6-2-3.4-2.9c1.8-1.2,1.2-0.5,10-1.4
				c0.3,0,0.6,0,1.1,0C250,120.3,250.5,120.2,250.8,121.9z"/>
			<path class="st7" d="M273.2,122.2c0.2,1.4-1.2,2.5-2.9,2.4c-5.2,0-5.7-0.1-5.7,1c-0.2,4-0.9,12.4-0.4,16.6c0,0-0.1,8.8-0.1,8.8
				c-0.4,7.6,0.3,12.6,0.1,17.7c-0.1,1.9,0.3,4,0.2,5.3c-0.4,3.7,2.2,6.3-2.1,6.6c-2,0.1-2.8-1.5-2.8-3.4c0.2-3.5,0.5-6.1,0.2-11.6
				c0-0.3-0.2-14.6-0.3-14.9c0,0,0.4-7.3,0.4-7.3c0.2-1.9-0.3-3.7-0.3-4.8c0.2-3.6,0.5-9.7,0.5-13.3c0.1-1.7-1.8-1.3-5.5-1.8
				c-2.2-0.2-2.3-3.2-0.4-3.6c1-0.2,8.7,0,9.3,0.1c0.1,0,4.2-0.2,5.8-0.2C271.8,120.8,273,120.8,273.2,122.2z"/>
			<path class="st7" d="M307.3,120.8c0.7,0.9,1.2,1.9,1.1,3c-0.1,1,0.2,2.1,0.4,3c0.4,2.1,0.5,4.3,1,6.4c0.4,1.9,0.7,4,1,5.9
				c0.5,3,1.3,5.8,1.8,8.8c0.5,3.2,1.4,6.4,1.8,9.6c0.1,0.2,0.1,0.4,0.2,0.6c0.7,1.6,0.7,3.3,1,4.9c0.5,3,1.2,6.1,1.9,9.1
				c0.4,1.5,0.5,3,1,4.4c0.5,1.5-0.5,2.6-1.3,3.6c-0.3,0.5-1.3,0.5-1.9,0.1c-0.7-0.5-1.2-1.2-1.3-2.1c-0.7-6.3,1.7-8.3-15.4-8.3
				c-1,0-1.2,0.1-1.4,1.1c-0.2,0.7-0.2,1.5-0.4,2.3c-0.4,2-0.8,4-1.3,5.9c-0.2,0.9-1,1.2-1.8,0.8c-0.4-0.2-0.9-0.5-1.2-0.8
				c-0.7-0.5-0.9-1-0.6-1.8c0.1-0.2,0.2-0.5,0.4-0.7c0.3-0.9,0.7-1.8,0.9-2.8c0.1-0.2,6.8-38.5,9.6-49.9c0.3-1.1,0.4-2.2,1-3.2
				c0.5-0.9,0.5-1,1.6-1C306,119.7,306.6,120,307.3,120.8z M311.3,160.7c-0.7-3.8-3.5-19.8-3.7-20.5c-0.5-3-0.4-4-2.2-10.4
				c0-0.1-0.2-0.2-0.2-0.2c-0.4,0-0.5,0.9-0.5,1.2c-2.6,10.9-2.7,15.8-6.5,33.6c-0.3,2.2,5,1.3,10.5,3c0.7,0.2,1.3,0.2,2.1,0.4
				C312.8,167.9,312.3,167.3,311.3,160.7z"/>
			<path class="st7" d="M321,173.4c0,0-2.1-52.8-2.1-52.8c7.9-6.6,3.4,40,6.5,54.2c0.3,1.9,5.6,1.5,6.6,1.3c4-0.7,5.2,4.5,0.5,4.5
				c-1.5-0.1-2.9-0.2-4.3-0.2c0-0.1,0-0.1,0-0.1C319.4,179.9,321.3,178.9,321,173.4z"/>
			<path class="st7" d="M337.9,176.6c0,0-1.2-44.7-1.2-44.7c0.3-5.4-0.9-11.3-0.9-11.3c2-1.7,4.2-0.7,4.7,1.3c0,0,0.5,25.9,0.5,25.9
				c0,28.6-0.1,29.5,7.9,28.3c4-0.7,5.2,4.5,0.5,4.5c-1.5-0.1-2.9-0.2-4.3-0.2c0-0.1,0-0.1,0-0.1
				C339.9,180.1,338.1,180.1,337.9,176.6z"/>
			<path class="st7" d="M354.5,131.9c0-10.1-0.1-10.4,0.2-11.7c0.1-0.7,1.6-1.6,2.5-0.7c1.6,1.4,1.7,11,1.7,12
				c-0.9,21.6,6.1,32.6,1.3,35.4c-3.6,2.1-3.6-4.4-4.2-12C354.2,138.9,354.5,143.5,354.5,131.9L354.5,131.9z M360.6,176.2
				c2.8,0,3.8,5.1,0.2,5.1C357,181.3,357.1,176.4,360.6,176.2z"/>
		</g>
	</g>
	<g>
		<g>
			<path d="M268,227c-0.1-1.9-1.2-3-3-3.4c-2.1-0.4-4.2-0.7-6.3-0.9c-2.5-0.2-5-0.1-7.6-0.1c-0.2,0-5.7,0-8.3,0c0,0-1.4,0-2.1,0
				c-0.1,0-0.1-0.1-0.3-0.2c0.6-1.6,0.7-3.2,0.2-4.8c-0.7-2.5-2.3-4-4.9-4.2c-0.8-0.1-1.7-0.1-2.5-0.2c0.1-0.2,0.1-0.3,0.1-0.4
				c1.6-2.5,1.5-5,0.3-7.6c-0.8-1.7-1.9-3.3-3.2-4.6c-2.1-2-4.6-2.4-7.2-1.2c-2.3,1.1-4.2,2.6-5.9,4.5c-0.3,0.3-0.6,0.7-1.1,1.2
				c0.3-2.1,0.5-4,0.8-5.9c0.2-1.8,0.1-3.6-0.4-5.3c-0.8-2.8-2.6-4-5.4-3.7c-0.8,0.1-1.6,0.2-2.4,0.4c-2.5,0.7-4.2,2.3-4.7,4.9
				c-0.4,2.3-0.7,4.6-0.8,6.9c-0.2,2.7-0.2,5.5-0.4,8.4c-0.2-0.4-0.3-0.7-0.4-0.9c-0.9-2.6-1.6-5.2-2.6-7.8
				c-0.5-1.3-1.2-2.6-2.1-3.8c-1.3-1.7-3.3-2.3-5.3-1.5c-3.5,1.4-6,3.9-7,7.6c-0.5,1.7-0.3,3.5,0.4,5.2c0.2,0.4,0.3,0.8,0.6,1.4
				c-0.6-0.1-1-0.1-1.5-0.2c-4.1-0.4-6.4,2-7.3,5.2c-0.4,1.4,0.2,2.6,1.3,3.4c0.9,0.6,1.9,1.1,2.8,1.7c0,0.1,0,0.1,0,0.2
				c-2.3-0.2-4.6-0.4-6.9-0.6c-0.1,0-3.8-0.2-5.5-0.5c-2.8-0.1-5.6-0.1-8.4-0.1c-1.8,0-3.7,0.2-5.4,0.7c-1.3,0.4-1.9,1.2-1.8,2.6
				c0,0.7,0.1,1.4,0.2,2c0.2,1.6,0.3,3.1,0.5,4.7c0.2,1.7,0.2,3.4,0.6,5.1c0.5,2.7,2.3,3.9,5.1,3.9c1.4,0,2.8,0,4.3,0
				c0,0.3,0.1,0.5,0.1,0.7c0,4.6,0.1,9.2,0.1,13.8c0,6.8-0.3,13.5-0.2,20.3c0.1,16.2,0.4,32.4,0.6,48.6c0.1,8.6,0.2,17.3,0.9,25.9
				c0.1,2,0.4,4.1,1,6c0.5,1.5,1.4,2.4,2.8,2.9c0.7,0.2,1.4,0.4,2.1,0.5c4.3,0.6,8.6,0.6,12.9,0.6c6.7-0.1,13.3-0.2,20-0.3
				c10.8-0.1,21.6-0.2,32.4-0.4c5.3-0.1,10.7,0,16-0.1c0.8,0,1.6,0,2.4-0.1c2.1-0.4,3.3-1.5,3.2-3.5c-0.1-1.4,0-2.8-0.1-4.2
				c-0.3-10.1-0.3-20.3-0.1-30.4c0.2-7.5,0.3-15,0.5-22.4c0.3-9.4,0.1-18.8-0.4-28.2c-0.2-3.2-0.4-6.3-0.6-9.5
				c-0.3-4.4-0.5-8.9-0.8-13.3c0-0.8-0.1-1.7-0.2-2.6c0.9,0,1.6,0,2.3,0c0.8-0.1,1.5-0.2,2.3-0.3c0.8-0.1,1.7-0.2,2.5-0.2
				c1.9-0.1,2.8-0.9,3-2.8c0.1-0.9,0.2-1.9,0.4-2.8C268.2,233.8,268.2,230.4,268,227z"/>
			<path class="st8" d="M216.7,240.5c12.2,0.8,24.4,1.6,36.6,2.5c0,3.1,0,6.2,0,9.3c0.1,5.4,0.2,10.9,0.4,16.3
				c0.2,9.4,0.3,18.9-0.2,28.3c-0.1,3-0.3,6.1-0.3,9.1c-0.3,12.4-0.4,24.8-0.1,37.2c0.1,2.6,0.3,5.2,0.4,7.8c0,0.5,0,1,0,1.5
				c-11.7,0.1-23.4,0.2-35.1,0.4c-0.1-0.5-0.1-1-0.2-1.5c-0.2-6.4-0.4-12.7-0.5-19.1c-0.2-12.9,0.2-25.8,0.7-38.7
				c0.2-7.6,0.3-15.1,0.2-22.7c0-4.1-0.5-8.2-0.8-12.3c-0.4-5.6-0.8-11.2-1.1-16.8C216.7,241.4,216.7,241,216.7,240.5z"/>
			<path class="st8" d="M168.2,239.8c1.6-0.1,3-0.3,4.4-0.4c7.3-0.4,14.5-0.2,21.8,0c2.4,0.1,4.9,0.2,7.3,0.2c0.2,0,0.5,0,0.9,0.1
				c0,0.5,0,1,0,1.4c-0.2,5-0.3,9.9-0.5,14.9c-0.2,5.7-0.5,11.4-0.7,17.2c-0.3,9.1-0.6,18.3-0.7,27.4c-0.1,7.7,0,15.5,0,23.2
				c0,9.1,0,18.3-0.1,27.4c0,0.6,0,1.3,0,2c-9.8,0.3-19.7,0.9-29.4,0.6c-0.1-3.7-0.4-7.2-0.4-10.8c-0.1-7.3-0.1-14.6-0.3-21.9
				c-0.2-8.5-0.4-16.9-0.6-25.4c-0.1-4.3-0.2-8.5-0.3-12.8c-0.4-9.8-0.5-19.7-0.6-29.5c0-4.1-0.4-8.3-0.6-12.4
				C168.2,240.8,168.2,240.5,168.2,239.8z"/>
			<path class="st9" d="M213.5,353.1c-2.7,0-5.3,0-8,0c0-0.4-0.1-0.7-0.1-1c0.2-19,0.4-38,0.6-57.1c0.1-9.8,0.4-19.6,0.7-29.4
				c0.2-8.3,0.7-16.7,0.5-25c0-0.2,0-0.4,0-0.8c1.6-0.2,3.2-0.1,4.9,0.1c0,0.9,0.1,1.7,0.1,2.5c0.4,7.9,0.9,15.8,1.2,23.7
				c0.2,5,0.2,9.9,0.1,14.9c-0.5,15.2-1.4,30.5-1.2,45.8c0.1,6.8,0.3,13.5,0.5,20.2C213,349,213.2,351,213.5,353.1z"/>
			<path class="st8" d="M216.3,235.2c-0.2-2.3-0.6-4.5-0.3-6.6c0.7,0,1.3,0,1.9,0c5.5,0,11,0,16.5,0c8-0.1,15.9-0.2,23.9-0.2
				c1.4,0,2.7,0.2,4.1,0.3c0,3.2,0,6.2,0,9.1c-3.5-0.1-7-0.1-10.5-0.3c-3.7-0.1-7.3-0.4-11-0.6c-2-0.1-4-0.4-6-0.5
				c-4.8-0.3-9.6-0.6-14.5-0.9C219.1,235.4,217.7,235.3,216.3,235.2z"/>
			<path class="st8" d="M158.4,233.7c-0.2-3.2-0.3-6.4-0.5-9.6c0.9-0.2,2-0.1,3,0c2,0.1,4.1,0.2,6.1,0.4c2.6,0.3,5.2,0.7,7.7,1
				c4.2,0.4,8.5,0.8,12.7,1.2c4.9,0.4,9.8,0.7,14.7,1.1c0,0,0.1,0,0.3,0.2c0,2,0,4.2,0,6.5C187.8,233.6,173.2,233.3,158.4,233.7z"/>
			<path class="st9" d="M211.8,220.3c0.2-0.4,0.2-0.6,0.3-0.7c2.3-3.9,4.8-7.8,7.7-11.3c1-1.3,2.2-2.4,3.3-3.5
				c0.6-0.6,1.4-1,2.1-1.4c0.6-0.3,1.2-0.2,1.6,0.3c1.3,1.3,2.3,2.8,2.8,4.7c0.2,0.9,0,1.7-0.6,2.4c-1,0.9-2,1.9-3.1,2.6
				c-2.4,1.5-5,2.9-7.5,4.2c-1.8,0.9-3.7,1.7-5.6,2.5C212.6,220.1,212.3,220.1,211.8,220.3z"/>
			<path class="st9" d="M200.7,220.6c-0.6-0.5-1-0.7-1.3-1c-2.8-2.8-5.6-5.6-8.4-8.4c-0.6-0.7-1.1-1.5-1.5-2.3c-1-2-0.8-3.9,0.5-5.7
				c0.7-1,1.7-1.8,2.7-2.5c1.3-0.9,1.8-0.8,2.5,0.6c0.4,0.8,0.7,1.7,1,2.6c1.6,4.9,2.9,10,4.1,15
				C200.4,219.4,200.5,219.9,200.7,220.6z"/>
			<path class="st9" d="M207,218.4c0.2-6.5,0.5-13.1,0.8-19.6c0-0.8,0.2-1.7,0.4-2.5c0.4-1.3,2-2.4,3.4-2.2c0.2,0,0.6,0.4,0.6,0.7
				c0.2,1,0.4,2,0.3,3c-0.2,2.3-0.4,4.5-0.9,6.7c-0.9,3.9-2,7.7-3,11.5c-0.2,0.9-0.7,1.7-1.2,2.4C207.2,218.5,207.1,218.4,207,218.4
				z"/>
			<path class="st9" d="M219.3,222.9c4.1-2.4,8.3-4.2,12.8-5.1c0.9-0.2,1.8-0.2,2.7-0.2c1.4,0.1,2.2,1.8,1.4,2.9
				c-0.9,1.2-2,2.2-3.8,2.2c-3.9-0.1-7.8,0.1-11.7,0.1C220.3,222.9,219.8,222.9,219.3,222.9z"/>
			<path class="st9" d="M194.7,220.3c-0.4-0.1-0.8-0.2-1.2-0.3c-2.9-1.1-5.9-1.6-9-2.1c-1.2-0.2-2.3-0.5-3.3-1.1
				c0.3-2.1,1.8-3.2,3.9-2.9c2.9,0.5,5.3,2.1,7.5,4C193.4,218.5,194,219.4,194.7,220.3z"/>
			<path class="st9" d="M207,228.1c1.7,0.1,3.3,0.2,5.1,0.3c0,2.2,0,4.3,0,6.6c-1.7-0.1-3.2-0.2-5-0.2
				C207,232.4,206.6,230.3,207,228.1z"/>
		</g>
		<g>
			<path d="M377.2,287.1c-0.2-1.2-0.4-2.3-0.2-3.6c0.1-0.7,0.1-1.5,0-2.2c-0.1-1.6-1.1-2.6-2.7-2.7c-0.3,0-0.6,0-0.9,0
				c-8.2,0-16.3,0-24.5,0c-0.5,0-1,0-1.6,0c-0.3-1.7-1-3.1-2.2-4.2c2.2-1.7,2.8-3.9,2.5-6.4c-0.1-1.1-0.2-2.2-0.6-3.3
				c-0.4-1.3-0.9-2.6-1.6-3.8c-1.1-1.8-2.8-2.7-4.9-2.7c-1.6,0-3,0.5-4.4,1.3c-3.3,1.9-6.6,3.9-9.4,6.4c-0.2,0.2-0.5,0.4-0.9,0.7
				c-0.1-0.6-0.2-1.1-0.2-1.5c0-1.9,0.4-3.6,1.2-5.3c1.8-3.8,4.2-7.1,7.5-9.8c2.3-1.9,4.6-3.7,7-5.4c3.1-2.3,6.1-4.7,8.3-7.9
				c1.2-1.6,2-3.4,2.5-5.3c0.3-1.1,0.2-2.1-0.6-2.8c-0.9-0.8-1.9-0.7-2.9-0.3c-3.3,1.4-6.9,2.4-9.9,4.5c0,0-0.1,0-0.3-0.1
				c0-0.9,0-1.8,0-2.7c0-1.1,0-2.1-0.2-3.2c-0.2-1.1-1.1-1.7-2.1-1.7c-0.8,0-1.5,0.4-2,1c-0.6,0.8-1.2,1.6-1.8,2.3
				c-5,6.2-9.5,12.8-12.7,20.2c0,0.1-0.1,0.2-0.4,0.5c0-0.5,0-0.9,0-1.2c0.1-3.3,0.6-6.6,1.5-9.9c1.6-6,3.8-11.9,6.1-17.7
				c0.5-1.2,0.9-2.3,1.2-3.5c0.7-2.5-1-4.1-3.4-3.3c-2.1,0.7-4.1,1.7-6.2,2.5c-0.4,0.2-0.7,0.4-1.2,0.6c-0.6-2.5-1.1-4.9-1-7.3
				c0-0.7,0-1.5-0.1-2.2c-0.2-0.9-0.8-1.5-1.6-1.5c-0.8,0-1.4,0.4-1.8,1.2c-0.1,0.2-0.1,0.3-0.2,0.5c-1,3.5-2.1,6.9-3.1,10.4
				c-2.2,7.9-3.5,16-3,24.3c0.4,6.6,1.9,12.9,4.5,19c1,2.4,2.2,4.7,4,6.7c0,0.1,0,0.2,0.1,0.3c-0.2,0.2-0.5,0.3-0.8,0.5
				c-0.7-0.9-1.3-1.6-1.9-2.4c-2.8-3.7-6.2-6.9-10-9.7c-1.4-1.1-3-2-4.8-2.4c-1.9-0.4-3.6,0.2-4.6,1.9c-0.5,1-0.9,2-1.2,3.1
				c-1,3.7-0.1,6.8,3,9.2c0.1,0.1,0.2,0.2,0.3,0.4c-3.5,2.6-4.2,6.2-4.1,10.3c-3.5,0.1-7,0.2-10.4,0.4c-2.9,0.2-5.8,0.4-8.7,0.7
				c-1.9,0.2-2.4,0.9-2.5,2.8c-0.1,3.8,0.3,7.6,1.7,11.2c0.5,1.3,1.4,2,2.7,2.2c1.2,0.2,2.4,0.4,3.7,0.6c0.3,0.1,0.6,0.2,1,0.3
				c0,0.6,0,1,0,1.5c-0.2,11.3-0.4,22.7-0.7,34c-0.2,5.6-0.7,11.1-1,16.6c-0.1,1.8-0.5,3.7-0.3,5.5c0.3,2.9,1.1,3.8,3.6,4.2
				c1.1,0.1,2.1,0.3,3.2,0.3c3.9,0,7.8-0.2,11.7-0.2c5.2-0.1,10.4,0,15.6-0.1c7.8-0.1,15.6-0.2,23.5-0.3c7-0.1,14-0.1,21-0.1
				c2.3,0,4.6,0.1,6.9,0.2c1.7,0.1,3.5,0.3,5.2,0c1.4-0.2,2.3-1.1,2.5-2.5c0-0.4,0-0.8,0-1.2c-0.3-5.9-0.6-11.8-0.9-17.7
				c-0.4-6.7-0.8-13.3-1.2-20c-0.3-6.2-0.4-12.4-0.6-18.6c0-0.4,0-0.9,0-1.5c1,0,1.8,0,2.6,0c1.9,0,3.8,0.1,5.8,0
				c1.6,0,2.7-1,2.6-2.4C377.8,292.2,377.5,289.7,377.2,287.1z"/>
			<path class="st9" d="M281.1,354.8c1.7-19.2,1.5-38.4,1-57.6c1.3,0,2.6,0,3.9,0c6.8,0,13.6,0,20.4,0c3.4,0,6.7,0.1,10.1,0.1
				c0.2,0,0.5,0.1,0.7,0.1c-0.1,6.2-0.2,12.4-0.2,18.6c0,6.2-0.1,12.4,0.1,18.6c0.1,6.2-0.4,12.4,0.2,18.7c-1.2,0.1-2.5,0.1-3.7,0.2
				c-5.1,0.1-10.2,0.2-15.2,0.4c-2.9,0.1-5.8,0.4-8.7,0.6c-2.4,0.1-4.8,0.2-7.2,0.3C282.1,354.8,281.7,354.8,281.1,354.8z"/>
			<path class="st9" d="M329.6,297.7c11.3,0.2,22.5,0.2,33.6-0.3c0,1.1,0,2.1,0,3.2c-0.1,3.9-0.2,7.9-0.2,11.8
				c0,9.2,0.1,18.4,0.9,27.5c0.3,3.4,0.5,6.9,0.8,10.4c0,0.7,0,1.3,0,2.1c-0.8,0-1.5,0.1-2.2,0.1c-3.9,0-7.8-0.1-11.7-0.1
				c-5.9,0-11.8,0.2-17.7,0.2c-0.5,0-0.9,0-1.5,0c-0.1-0.7-0.2-1.2-0.2-1.8c-0.7-11.9-0.9-23.7-1.1-35.6c-0.1-5.5-0.5-10.9-0.7-16.4
				C329.6,298.6,329.6,298.2,329.6,297.7z"/>
			<path class="st9" d="M372.3,283.2c-0.1,3.3-0.2,6.4-0.3,9.7c-1,0-1.9,0.1-2.8,0c-1.4,0-2.9,0-4.3-0.6c-0.6-0.3-1.3-0.3-2-0.3
				c-5.5,0-11-0.1-16.5,0c-12,0.4-24,0.2-36-0.1c-5.3-0.1-10.5,0-15.8-0.1c-3.7-0.1-7.4,0-11.1-0.5c-1.4-0.2-2.8-0.1-4.3,0.3
				c-1.3,0.4-2.7,0.3-4.1,0.4c-0.5-3.1-0.9-6.1-1.4-9.2c1.5,0,2.9,0,4.3,0c6.1,0,12.2,0.1,18.3,0.1c6.5,0,12.9-0.1,19.4,0.2
				c10.6,0.4,21.3,0.4,31.9,0.3c5.8,0,11.5-0.1,17.3-0.1c1.7,0,3.4-0.1,5.1-0.1C370.7,283.2,371.4,283.2,372.3,283.2z"/>
			<path class="st10" d="M326.2,297.7c0.5,18.4-0.2,36.7,1.4,54.9c-1.1,0.4-4.8,0.6-6.6,0.4c0-0.1-0.1-0.2-0.1-0.2
				c0.6-2.6,0.5-5.3,0.5-7.9c-0.1-9.3-0.2-18.6-0.3-27.8c-0.1-5.2-0.2-10.4-0.3-15.6c0-1.3-0.1-2.5-0.2-3.8c1.1,0,2,0,2.9,0
				C324.5,297.6,325.3,297.7,326.2,297.7z"/>
			<path class="st10" d="M313.4,216.2c0.1,0.8,0.2,1.5,0.4,2.1c0.3,1.6,1.5,2.5,3.2,2.3c0.8-0.1,1.5-0.5,2.3-0.8
				c1.2-0.6,2.4-1.2,3.8-1.7c-0.2,0.4-0.3,0.8-0.5,1.3c-1.9,5.3-3.9,10.6-5.5,16c-2.2,7.5-2.6,15.1-1.5,22.8c0.3,2.4,0.6,4.7,1,7.3
				c-0.4-0.6-0.7-1.1-0.9-1.6c-2.1-4.4-3.7-9-4.6-13.8c-1.1-5.4-1.3-10.8-1-16.2c0.4-5.9,1.5-11.7,3.1-17.4
				C313.1,216.5,313.2,216.4,313.4,216.2z"/>
			<path class="st10" d="M311.3,276.5c0,0.7,0,1.2,0,1.9c-5.4,0.3-10.8,0.2-16.3,0.4c0-2,0-3.8,0.9-5.5c0.5-1,1.3-1.6,2.3-1.9
				c0.5-0.2,1.1-0.3,1.5-0.6c1.4-0.9,1.5-2.6,0.3-3.7c-0.7-0.6-1.5-1-2.2-1.5c-3-2.2-3.1-3.3-2.4-6.8c0-0.2,0.1-0.3,0.1-0.5
				c0.5-1.2,0.8-1.4,2-0.9c1,0.5,1.9,1,2.8,1.6c3.2,2.3,6.2,5,8.8,8c1.1,1.3,2.2,2.5,3.3,3.8c-0.2,0.8-0.5,1.7-0.7,2.6
				c-1.5,0-3-0.1-4.5,0c-1.1,0.1-2.3,0.3-3.4,0.5c-0.5,0.1-1,0.4-1.3,0.7c-0.4,0.3-0.6,0.8-0.3,1.4c0.3,0.6,0.7,0.8,1.3,0.8
				c0.5,0,1-0.2,1.5-0.2c1.7-0.1,3.3-0.3,5-0.4C310.3,276.4,310.8,276.5,311.3,276.5z"/>
			<path class="st10" d="M346.8,233.1c-0.4,0.5-0.7,1-1.1,1.4c-2.3,2.8-5.2,5-8,7.1c-1.5,1.1-3,2.2-4.5,3.4c-3.2,2.6-5.9,5.6-8.1,9
				c-2.6,4.1-3.8,6.8-4,12.1c-0.5,0-0.9,0.1-1.7,0.1c1.2-1.5,0.4-2.8,0.3-4.1c-0.1-1.1-0.3-2.1-0.3-3.2c0-0.5,0.1-1,0.3-1.5
				c1.4-4.7,3.4-9.1,5.8-13.3c2.4-4.1,5-8,7.9-11.6c0.2-0.3,0.4-0.5,0.8-1c0.1,0.5,0.1,0.7,0.1,1c0,1.2,0,2.5,0,3.7
				c0.1,2,1.9,2.8,3.6,1.7c0.4-0.3,0.8-0.6,1.2-1c2-1.7,4.3-3,6.7-3.9c0.2-0.1,0.3-0.1,0.5-0.2C346.5,233,346.6,233.1,346.8,233.1z"
				/>
			<path class="st10" d="M342.8,278.6c-5.3,0-10.4,0-15.6,0c0-1,0-1.9,0-3c1.6,0,3.2-0.1,4.8-0.1c0.6,0,1.1,0,1.7,0.1
				c0.7,0.1,1.2-0.2,1.6-0.7c0.4-0.4,0.8-0.8,0.5-1.5c-0.3-0.6-0.7-0.9-1.4-1c-1.8-0.2-3.7-0.1-5.5,0.2c-0.6,0.1-1.2,0.2-1.9,0.4
				c-0.2-1-0.4-2.1-0.7-3.2c1-0.7,2-1.5,3-2.1c2.6-1.6,5.3-3.3,8-4.8c0.7-0.4,1.6-0.7,2.4-0.9c1.3-0.2,1.8,0.1,2.4,1.2
				c0.2,0.3,0.4,0.7,0.4,1.1c0.3,1.6,0.6,3.3,0.8,4.9c0.2,1.3-0.5,2.1-1.7,2.5c-0.7,0.3-1.4,0.5-2,0.7c-1.1,0.5-1.5,1.4-1.4,2.7
				c0.1,0.8,0.7,1.3,1.8,1.5c0.4,0.1,0.8,0.1,1.3,0.3C342,277.2,342.6,277.6,342.8,278.6z"/>
			<path class="st10" d="M323,278.7c-3.1-0.1-6-0.2-9-0.2c0-0.3-0.1-0.6-0.1-0.9c0.2-1.2,0.4-2.4,0.6-3.5c0.4-2.6,2.1-3.8,4.5-4.3
				c2.8-0.6,3.4-0.5,3.6,2.5C322.7,274.4,322.8,276.4,323,278.7z"/>
		</g>
		<g>
			<path d="M157.4,307.2c-0.1-1.5-0.4-3-0.7-4.6c-0.2-1.3-1.1-2-2.4-2.2c-0.4-0.1-0.8-0.1-1.3-0.1c-5.1-0.2-10.2-0.5-15.4-0.7
				c-0.5,0-0.9-0.1-1.4-0.1c0.1-1.2,0.3-2.2,0.3-3.3c0-5.7-0.3-11.4-1.5-17.1c-0.4-2-0.9-4.1-2-5.9c-2.1-3.2-5.4-3.9-8.6-1.8
				c-0.2,0.1-0.4,0.3-0.6,0.4c-2.1,1.5-4,3.2-5.7,5.1c-2.3,2.6-4.3,5.4-6,8.5c-0.4,0.7-0.8,1.3-1.1,2c-3.2-2.3-6.3-2-9.6-0.5
				c-0.2-0.2-0.4-0.4-0.6-0.6c-1.2-1.5-2.5-2.9-3.7-4.4c-3.1-3.9-6.7-7.1-10.8-10c-1-0.7-2.1-1.4-3.2-1.9c-2.7-1.2-5.2-0.3-6.2,2.5
				c-0.5,1.5-0.9,3.1-1,4.7c-0.2,2.6-0.1,5.1,0,7.7c0.2,3.6,0.5,7.2,0.8,10.7c0.1,1.1,0.4,2.2,0.6,3.2c-0.1,0.1-0.2,0.2-0.3,0.2
				c-0.4,0-0.8,0.1-1.1,0.1c-6.4,0.1-12.7,0.5-19.1,1.1c-1.6,0.2-2.8,1.6-2.7,3.3c0.1,1.4,0.2,2.7,0.4,4.1c0.2,2.1,0.4,4.3,0.7,6.4
				c0.1,0.7,0.5,1.4,0.8,2c0.5,0.7,1.2,1,2.1,0.9c1.9-0.1,3.7-0.1,5.6-0.2c0.3,0,0.6,0.1,0.7,0.1c0.2,5.8,0.5,11.5,0.7,17.3
				c0.2,4.7,0.4,9.4,0.6,14.1c0,0.6,0,1.3,0.2,1.9c0.2,0.5,0.5,1.1,0.9,1.3c1,0.6,1.9,1.2,3.2,1.3c0.8,0,1.6,0.2,2.4,0.3
				c4.5,0.3,9,0.7,13.5,0.9c6.5,0.2,13,0.3,19.5,0.4c8.7,0.1,17.4,0.3,26.2,0.3c4.5,0,9.1-0.3,13.6-0.5c0.7,0,1.4-0.1,2-0.3
				c1.3-0.3,1.9-1.2,1.7-2.6c0-0.3,0-0.7,0-1c0.1-1.8,0.4-3.6,0.3-5.4c-0.1-7.2-0.2-14.4-0.4-21.5c0-1.3-0.1-2.5,0-3.8
				c1.3,0,2.5-0.1,3.7,0c1.5,0.1,2.8-0.1,4-1.2c0.8-0.7,1.3-1.4,1.3-2.5C157.6,313,157.6,310.1,157.4,307.2z"/>
			<path class="st6" d="M111.2,349.9c0.1-10.5,0.3-20.8,0.4-31.3c11,0.6,22,0.1,33.1,0.9c0,10.1,0.7,20.1-0.2,30.3
				C133.4,350.4,122.5,350.1,111.2,349.9z"/>
			<path class="st6" d="M97.6,349.8c-9.3,0.1-18.4-0.4-27.6-0.8c-0.3-5.4-0.6-10.8-1-16.2c-0.3-5.4-0.7-10.7-0.6-16.2
				c0.3,0,0.6-0.1,0.9-0.1c5.8-0.3,11.5,0.2,17.3,0.7c3.8,0.3,7.6,0.6,11.4,0.9C97.9,328.6,97.7,339.1,97.6,349.8z"/>
			<path class="st6" d="M111.6,304.4c13.9,0.3,27.9,0.6,41.9,0.9c0,3.4,0,6.7,0,10c-0.3,0-0.7,0-1,0c-2.6-0.1-5.3-0.2-7.9-0.2
				c-5.4-0.1-10.8-0.2-16.3-0.2c-2,0-3.9,0-5.9,0.1c-1.9,0-3.7-0.3-5.6,0c-1.7,0.3-3.4,0-5.2-0.1C111.6,311.4,111.6,308,111.6,304.4
				z"/>
			<path class="st6" d="M98.6,304.2c-0.1,3.4-0.3,6.7-0.4,10.1c-0.8,0-1.6,0-2.4,0c-3.5-0.2-7-0.6-10.5-0.8
				c-3.2-0.2-6.3-0.3-9.5-0.3c-5.7,0-11.4,0.1-17.3,0.1c-0.4-3-0.8-6.2-1.2-9.4C71,303.3,84.7,303.6,98.6,304.2z"/>
			<path class="st11" d="M98.2,295.2c0.1,1.3,0.2,2.5,0.4,3.7c-1.2,0.4-13.7,0.3-17.1,0c-0.3-2.7-0.7-5.4-0.9-8.1
				c-0.3-3.4-0.6-6.7-0.7-10.1c-0.1-2,0.2-4.1,0.4-6.1c0-0.6,0.3-1.1,0.5-1.7c1.3,0.1,2.2,0.8,3.1,1.4c2.4,1.8,4.9,3.5,7,5.6
				c3,2.9,5.8,6,8.6,9.1c-0.4,1.1-0.8,2.2-1.2,3.3c-0.4-0.3-0.8-0.6-1.3-0.8c-1.9-1.1-3.8-2.2-5.7-3.2c-0.4-0.2-0.8-0.3-1.2-0.4
				c-0.5-0.1-0.9,0.1-1.2,0.6c-0.3,0.5-0.2,1,0.2,1.3c0.5,0.5,1.1,1,1.7,1.3C93.2,292.5,95.7,293.8,98.2,295.2z"/>
			<path class="st11" d="M132,299.5c-5.9-0.1-11.9-0.2-17.9-0.3c0-0.7,0-1.4,0-2.3c0.8-0.3,1.7-0.6,2.5-1c2-0.8,4.1-1.5,6.1-2.3
				c0.6-0.2,1.1-0.7,1.6-1.1c0.4-0.4,0.7-0.9,0.3-1.5c-0.3-0.5-0.9-0.7-1.6-0.5c-1,0.4-2,0.8-3,1.2c-2.1,0.8-4.1,1.6-6.2,2.4
				c-0.4-1.4-0.7-2.8-1.2-4.5c2.4-3.2,5-6.6,7.6-9.8c1.6-2,3.6-3.5,5.6-5c1.6-1.1,2.7-1.2,3.6,1.2c0.6,1.7,0.9,3.6,1.2,5.4
				c0.8,4.4,0.8,8.9,0.9,13.4C131.7,296.3,131.9,297.8,132,299.5z"/>
			<path class="st11" d="M107,318.4c0,1.6,0,3,0,4.4c-0.1,8-0.2,16-0.4,24c0,1-0.2,2-0.3,3.1c-1.4,0-2.6,0-4,0
				c-0.1-10.5,0.3-21,0.4-31.7C104.2,318.3,105.6,318.3,107,318.4z"/>
			<path class="st11" d="M110,299.1c-2.9,0-5.8,0-8.9,0c-0.1-2.4-0.3-4.7,0.4-6.9c0.8-2.6,2.3-3.5,5.5-3c1.1,0.2,1.9,1,2.2,2.1
				c0.3,1.2,0.6,2.4,0.7,3.6C110.1,296.3,110,297.7,110,299.1z"/>
			<path class="st11" d="M102.7,314.7c0-3.5,0-6.9,0-10.3c1.7,0,3.4,0,5.1,0c-0.2,3.5-0.4,6.9-0.6,10.3
				C105.7,314.7,104.3,314.7,102.7,314.7z"/>
		</g>
	</g>
</g>
</svg>
